<svg viewBox="0 0 330 200" xmlns="http://www.w3.org/2000/svg"><g><g><g><g><g><line x1="50" y1="177" x2="45" y2="177" style="visibility: inherit;" fill="rgb(0, 0, 0)" stroke="rgb(204, 204, 204)" stroke-width="1px"></line><line x1="50" y1="151.7142857142857" x2="45" y2="151.7142857142857" style="visibility: inherit;" fill="rgb(0, 0, 0)" stroke="rgb(204, 204, 204)" stroke-width="1px"></line><line x1="50" y1="126.42857142857149" x2="45" y2="126.42857142857149" style="visibility: inherit;" fill="rgb(0, 0, 0)" stroke="rgb(204, 204, 204)" stroke-width="1px"></line><line x1="50" y1="101.14285714285705" x2="45" y2="101.14285714285705" style="visibility: inherit;" fill="rgb(0, 0, 0)" stroke="rgb(204, 204, 204)" stroke-width="1px"></line><line x1="50" y1="75.85714285714285" x2="45" y2="75.85714285714285" style="visibility: inherit;" fill="rgb(0, 0, 0)" stroke="rgb(204, 204, 204)" stroke-width="1px"></line><line x1="50" y1="50.57142857142841" x2="45" y2="50.57142857142841" style="visibility: inherit;" fill="rgb(0, 0, 0)" stroke="rgb(204, 204, 204)" stroke-width="1px"></line><line x1="50" y1="25.285714285714196" x2="45" y2="25.285714285714196" style="visibility: inherit;" fill="rgb(0, 0, 0)" stroke="rgb(204, 204, 204)" stroke-width="1px"></line><line x1="50" y1="0" x2="45" y2="0" style="visibility: inherit;" fill="rgb(0, 0, 0)" stroke="rgb(204, 204, 204)" stroke-width="1px"></line></g><g transform="translate(40, 0)"><text x="0" y="177" dx="0em" dy="0.3em" style="text-anchor: end; visibility: hidden; font-family: Roboto, sans-serif; font-size: 12px; font-weight: 200;" fill="rgb(33, 33, 33)" stroke="none" stroke-width="1px">1.95</text><text x="0" y="151.7142857142857" dx="0em" dy="0.3em" style="text-anchor: end; visibility: inherit; font-family: Roboto, sans-serif; font-size: 12px; font-weight: 200;" fill="rgb(33, 33, 33)" stroke="none" stroke-width="1px">2</text><text x="0" y="126.42857142857149" dx="0em" dy="0.3em" style="text-anchor: end; visibility: inherit; font-family: Roboto, sans-serif; font-size: 12px; font-weight: 200;" fill="rgb(33, 33, 33)" stroke="none" stroke-width="1px">2.05</text><text x="0" y="101.14285714285705" dx="0em" dy="0.3em" style="text-anchor: end; visibility: inherit; font-family: Roboto, sans-serif; font-size: 12px; font-weight: 200;" fill="rgb(33, 33, 33)" stroke="none" stroke-width="1px">2.1</text><text x="0" y="75.85714285714285" dx="0em" dy="0.3em" style="text-anchor: end; visibility: inherit; font-family: Roboto, sans-serif; font-size: 12px; font-weight: 200;" fill="rgb(33, 33, 33)" stroke="none" stroke-width="1px">2.15</text><text x="0" y="50.57142857142841" dx="0em" dy="0.3em" style="text-anchor: end; visibility: inherit; font-family: Roboto, sans-serif; font-size: 12px; font-weight: 200;" fill="rgb(33, 33, 33)" stroke="none" stroke-width="1px">2.2</text><text x="0" y="25.285714285714196" dx="0em" dy="0.3em" style="text-anchor: end; visibility: inherit; font-family: Roboto, sans-serif; font-size: 12px; font-weight: 200;" fill="rgb(33, 33, 33)" stroke="none" stroke-width="1px">2.25</text><text x="0" y="0" dx="0em" dy="0.3em" style="text-anchor: end; visibility: hidden; font-family: Roboto, sans-serif; font-size: 12px; font-weight: 200;" fill="rgb(33, 33, 33)" stroke="none" stroke-width="1px">2.3</text></g><line x1="50" y1="0" x2="50" y2="177" fill="rgb(0, 0, 0)" stroke="rgb(204, 204, 204)" stroke-width="1px"></line></g></g><g transform="translate(50, 0)" clip-path="url(#clip_0)"><clipPath id="clip_0"><rect width="280" height="177"></rect></clipPath><g><g><g><line x1="0" y1="0" x2="0" y2="177" fill="rgb(0, 0, 0)" stroke="rgb(66, 66, 66)" stroke-width="1px" opacity="0.25"></line><line x1="20" y1="0" x2="20" y2="177" fill="rgb(0, 0, 0)" stroke="rgb(66, 66, 66)" stroke-width="1px" opacity="0.25"></line><line x1="40" y1="0" x2="40" y2="177" fill="rgb(0, 0, 0)" stroke="rgb(66, 66, 66)" stroke-width="1px" opacity="0.25"></line><line x1="60" y1="0" x2="60" y2="177" fill="rgb(0, 0, 0)" stroke="rgb(66, 66, 66)" stroke-width="1px" opacity="0.25"></line><line x1="80" y1="0" x2="80" y2="177" fill="rgb(0, 0, 0)" stroke="rgb(66, 66, 66)" stroke-width="1px" opacity="0.25"></line><line x1="100" y1="0" x2="100" y2="177" fill="rgb(0, 0, 0)" stroke="rgb(66, 66, 66)" stroke-width="1px" opacity="0.25"></line><line x1="120" y1="0" x2="120" y2="177" fill="rgb(0, 0, 0)" stroke="rgb(66, 66, 66)" stroke-width="1px" opacity="0.25"></line><line x1="140" y1="0" x2="140" y2="177" fill="rgb(0, 0, 0)" stroke="rgb(66, 66, 66)" stroke-width="1px" opacity="0.25"></line><line x1="160" y1="0" x2="160" y2="177" fill="rgb(0, 0, 0)" stroke="rgb(66, 66, 66)" stroke-width="1px" opacity="0.25"></line><line x1="180" y1="0" x2="180" y2="177" fill="rgb(0, 0, 0)" stroke="rgb(66, 66, 66)" stroke-width="1px" opacity="0.25"></line><line x1="200" y1="0" x2="200" y2="177" fill="rgb(0, 0, 0)" stroke="rgb(66, 66, 66)" stroke-width="1px" opacity="0.25"></line><line x1="220" y1="0" x2="220" y2="177" fill="rgb(0, 0, 0)" stroke="rgb(66, 66, 66)" stroke-width="1px" opacity="0.25"></line><line x1="240" y1="0" x2="240" y2="177" fill="rgb(0, 0, 0)" stroke="rgb(66, 66, 66)" stroke-width="1px" opacity="0.25"></line><line x1="260" y1="0" x2="260" y2="177" fill="rgb(0, 0, 0)" stroke="rgb(66, 66, 66)" stroke-width="1px" opacity="0.25"></line><line x1="280" y1="0" x2="280" y2="177" fill="rgb(0, 0, 0)" stroke="rgb(66, 66, 66)" stroke-width="1px" opacity="0.25"></line></g><g><line x1="0" y1="177" x2="280" y2="177" fill="rgb(0, 0, 0)" stroke="rgb(66, 66, 66)" stroke-width="1px" opacity="0.25"></line><line x1="0" y1="151.7142857142857" x2="280" y2="151.7142857142857" fill="rgb(0, 0, 0)" stroke="rgb(66, 66, 66)" stroke-width="1px" opacity="0.25"></line><line x1="0" y1="126.42857142857149" x2="280" y2="126.42857142857149" fill="rgb(0, 0, 0)" stroke="rgb(66, 66, 66)" stroke-width="1px" opacity="0.25"></line><line x1="0" y1="101.14285714285705" x2="280" y2="101.14285714285705" fill="rgb(0, 0, 0)" stroke="rgb(66, 66, 66)" stroke-width="1px" opacity="0.25"></line><line x1="0" y1="75.85714285714285" x2="280" y2="75.85714285714285" fill="rgb(0, 0, 0)" stroke="rgb(66, 66, 66)" stroke-width="1px" opacity="0.25"></line><line x1="0" y1="50.57142857142841" x2="280" y2="50.57142857142841" fill="rgb(0, 0, 0)" stroke="rgb(66, 66, 66)" stroke-width="1px" opacity="0.25"></line><line x1="0" y1="25.285714285714196" x2="280" y2="25.285714285714196" fill="rgb(0, 0, 0)" stroke="rgb(66, 66, 66)" stroke-width="1px" opacity="0.25"></line><line x1="0" y1="0" x2="280" y2="0" fill="rgb(0, 0, 0)" stroke="rgb(66, 66, 66)" stroke-width="1px" opacity="0.25"></line></g></g></g><g><g><line x1="0" y1="1163.1428571428576" x2="280" y2="1163.1428571428576" fill="rgb(0, 0, 0)" stroke="rgb(153, 153, 153)" stroke-width="1.5px"></line></g></g><g><g><line x1="20" y1="0" x2="20" y2="177" fill="rgb(0, 0, 0)" stroke="rgb(153, 153, 153)" stroke-width="1.5px"></line></g></g><g><g><g><g><g><path stroke="rgb(255, 112, 67)" stroke-width="2px" d="M33,-5.941785820045558L34,29.394710253531848L35,43.47531205932219L36,16.711831310360115L37,38.5126269954892L38,47.46368518920997L39,41.16115770775533L40,40.596326563602105L41,83.99259485686396L42,68.74266214370545L43,57.711560291040335L44,70.47200260029274L45,82.35601497497372L46,93.37031063250865L46.99999999999999,89.03520025092824L48,98.12626936213171L49,95.63108285454496L50,98.66515278565018L51,83.93862393256413L52,97.94077061247158L53,90.17942323953886L54,83.15588933601424L55,83.7561482163323L56,82.80144522401191L57,98.31032971774322L58.00000000000001,122.82756248249153L59,102.88637242126401L60,124.13696228709948L61,113.26035473387998L62,101.61655638636039L63,83.70686886997994L64,76.29876987809489L65,83.04030994478697L66,80.06588829168996L67,88.9821649420748L68,119.516509691987L69,134.86350539098672L70,114.37617573329257L71,116.04149338205258L72,118.15322299020991L73,94.4582090909769L74,96.3431629772583L75,75.00020086294936L76,96.15816407944058L77,92.34643767801025L78,112.35127304425662L79,117.84060266104457L80,125.30125419873005L81.00000000000001,113.3116046463128L82,89.81358163631533L83,97.62230474568777L84,94.01384670370099L85,108.29460453972914L86,108.75138234402428L87,103.70534415512414L88,105.04709429083881L89,109.85739094339985L90,115.17101448285743L91,132.88330158042677L92,131.71741299214887L93,120.76200438795802L93.99999999999999,126.44728207657036L95,114.94995319543987L96,110.33740203200999L97,98.16359217876574L98,86.77313198311033L99,85.46123178996383L100,109.93959814598232L101,100.53437040535935L102,102.76017574924936L103,99.40262328489426L104,95.36523659257075L105,108.25584217701295L106,109.01132369174057L107,120.6914759167045L108,125.49464879901124L109,134.24284711675665L110,136.3967875024062L111,138.70060345498732L112,140.85156160999716L113,146.3699101693848L114,168.81714023702435L115,143.99278037111392L116.00000000000001,155.88080027658856L117,116.71042117111502L118,119.74809462379407L119,112.54875383194593L120,122.08572927365476L121,112.89941904438267L122,132.4710761397644L123,125.42171990042874L124,124.81301843622894L125,124.93331560449681L126,132.99577923391394L127,131.29942976612602L128,122.65541300624729L129,117.91405714081937L130,114.44212619210191L131,117.76000020692548L132,91.3093600550111L133,102.70708160699873L134,111.6292896506703L135,128.97814637646186L136,124.7217480553693L137,122.34997230167514L138,133.32702908325808L139,134.49197452567336L140,144.77930829960638L141,135.39591194073603L142,129.62427474274102L143,126.54562671567454L144,141.73092413382724L145,143.03388049522383L146,158.46113474048485L147,144.6366673402626L148,120.28053675931247L149,115.8418061493897L150,106.32107751636366L151,99.79950789679859L152,101.71239685713252L152.99999999999997,117.1617161119776L154,118.82535662815879L155,131.51566625830222L156,123.35155243224492L157,107.42854010192514L158,109.08133997737978L159,116.16184158626383L160,144.0775678434732L161,122.35226656667979L162.00000000000003,129.7883728467636L163,123.81209792462835L164,104.2052984581462L165,102.45435932042348L166,102.53663912784646L167,109.14004247154621L168,121.92175828845215L169,144.76220188142264L170,142.18246668680214L171,139.9266286566648L172,129.20731053968453L173,128.62175821537733L174,150.01613242534626L175,127.91800448703326L176,140.79446242013407L177,171.90456370652723L178,169.2901567637811L179,134.54664851034727L180,124.68467196535656L181,156.51399422797235L182,161.5527366159547L183,171.53460784220124L184,168.80521640798358L185,124.3639353235674L186,94.1793899199009L187,128.42021155378214L187.99999999999997,133.04480554729437L189,149.4536147649699L190,136.1169689361477L191,140.110513338443L192,114.04506760520377L193,122.45753563453346L194,142.53485528662134L195,131.05544528300445L196,143.7490502890042L197.00000000000003,146.87447278902061L198,141.71017278299658L199,137.13492728255602L200,138.6175054200009L201,141.57037137246638L202,138.62884745944868L203,150.37661847867744L204,136.67077116437224L205,136.33641257786095L206,153.85602453123107L207,143.73464923193956L208,144.27657941037947L209,138.00718997323668L210,146.01860934396225L211,143.6645158914987L212,136.40602127413945L213,151.53103998550935L214,122.35384127646175L215,129.93091705530568L216,125.37433817525228L217,145.2356927478113L218,141.67763658069364L219,135.65894787815606L220,145.86382660282666L221,155.52676251878998L222,145.2630256988787L222.99999999999997,153.64912850897045L224,178.34296891577216L225,177.96760301454603L226,156.78560249519867L227,146.90838983705012L228,173.69166432563972L229,173.1539650467562L230,170.68712281118715L231,133.74630721681137L232.00000000000003,121.91862102398679L233,146.98546990355933L234,127.39425746049845L235,125.81447773330942L236,137.0644610780261L237,108.94039440499417L238,139.1985339321637L239,135.72907949844097L240,154.3614529077613L241,142.66237628741615L242,162.40531009774972L243,159.16055987936332L244,150.01234904581693L245,162.68865561279281L246,169.22234027602704L247,150.26405040803044L248,153.41316534679058L249,129.99668809618805L250,124.86761108289762L251,137.97303069894167L252,136.9357050596412L253,142.54373074234502L254,128.45126176955594L255,133.81189644641208L256,149.2868001036521L257,171.53826206248772L258,184.30250977895298L259,168.09131383551141L260,163.58358972887552L261,142.63277037087727L262,140.3181542073024L263,133.48793629748758L264,131.91833839723208L265,103.66801015765408L266,125.71853214810274L267,133.6287163565583L268,121.64579545506577" style="fill: none;" fill="none"></path></g></g></g></g><g opacity="0.2"><g><g><g><path stroke="rgb(255, 112, 67)" stroke-width="2px" d="M27,-149.64088685171959L28,4.248005594525923L29.000000000000004,-58.05596392495304L30,-37.01825523376477L31,33.579478536333276L32,25.083395004272383L33,-1.4159697123937143L34,82.33022648947573L35,64.57966354915068L36,-23.414514132908526L37,71.20459515707827L38,60.88799980708525L39,31.708326612199976L40,39.74913147517605L41,149.08461734226768L42,45.86826487949909L43,41.16512530190597L44,89.61251490456712L45,100.18194907052171L46,109.89170714787069L46.99999999999999,82.53254577091757L48,111.76285907200399L49,91.88830539158407L50,103.21625600542336L51,61.84883553641176L52,118.94398784637447L53,78.5374031066894L54,72.62058898380819L55,84.65653651101243L56,81.36939076014922L57,121.57365621839246L58.00000000000001,159.6034114020211L59,72.97458744049067L60,156.01284701483587L61,96.94544342585966L62,84.1508588790893L63,56.842337608337346L64,65.18662139347616L65,93.15262004307333L66,75.60425581250865L67,102.35657991681775L68,165.31802681514193L69,157.88399893896917L70,83.64518124716616L71,118.53946985517224L72,121.3208174024309L73,58.91568824223102L74,99.17059380667546L75,42.98575769151953L76,127.89510890415733L77,86.62884807586664L78,142.3585260936192L79,126.07459708622518L80,136.4922315052577L81.00000000000001,95.32713031768795L82,54.566547121320376L83,109.33538940974638L84,88.60115964072087L85,129.7157412937709L86,109.4365490504673L87,96.1362868717738L88,107.05971949441087L89,117.07283592224117L90,123.14144979204445L91,159.45173222678045L92,129.96858010973247L93,104.32889148167196L93.99999999999999,134.97519860948833L95,97.70395987374437L96,103.41857528686519L97,79.90287739889956L98,69.68744168962745L99,83.49338150024408L100,146.6571476800101L101,86.42652879442483L102,106.09888376508435L103,94.36629458836141L104,89.30915655408582L105,127.59175055367602L106,110.14454596383227L107,138.21170425415036L108,132.69940812247137L109,147.36514459337505L110,139.62769808088026L111,142.15632738385878L112,144.07799884251182L113,154.6474330084664L114,202.48798533848353L115,106.75624057224813L116.00000000000001,173.71283013480047L117,57.9548525129045L118,124.3046048028128L119,101.74974264417371L120,136.39119243621823L121,99.11995370047428L122,161.82856178283689L123,114.84768554142538L124,123.89996623992916L125,125.11376135689868L126,145.08947467803952L127,128.75490556444439L128,109.68938786642887L129,110.80202334267749L130,109.23422976902548L131,122.7368112291608L132,51.63339982713965L133,119.80366393498007L134,125.01260171617777L135,155.0014314651489L136,118.33715057373043L137,118.79230867113381L138,149.79261425563266L139,136.23939268929615L140,160.21030896050587L141,121.3208174024309L142,120.96681894574841L143,121.92765467507495L144,164.50887026105605L145,144.9883150373186L146,181.60201610837663L147,123.89996623992916L148,83.74634088788709L149,109.18371023450574L150,92.03998456682471L151,90.01715346745077L152,104.58173029763353L152.99999999999997,140.33569499424522L154,121.3208174024309L155,150.55113070351734L156,111.10538169315878L157,83.54402160644526L158,111.56053979056217L159,126.78259399959015L160,185.95115722928728L161,89.7643146514892L162.00000000000003,140.94253226688926L163,114.84768554142538L164,74.7950992584228L165,99.82795061383923L166,102.66005883898049L167,119.04514748709538L168,141.09433201381134L169,179.02286727087838L170,138.31286389487127L171,136.54287161145888L172,113.12833336421417L173,127.74342972891667L174,182.10769374029977L175,94.77081257956364L176,160.10914931978496L177,218.5697156361171L178,165.36854634966167L179,82.43138613019666L180,109.89170714787069L181,204.25797762189592L182,169.11085019792827L183,186.50741468157085L184,164.71112925665716L185,57.702013696942934L186,48.90257181440074L187,179.78144400460377L187.99999999999997,139.98169653756275L189,174.06682859148296L190,116.11200019291464L191,146.1008299418858L192,74.94689900534487L193,135.0762376785278L194,172.65083476475306L195,113.83633027757912L196,162.78945779800412L197.00000000000003,151.56260653904502L198,133.96372277396063L199,130.2720590318952L200,140.84137262616835L201,145.99967030116488L202,134.21656158992218L203,167.9982750075204L204,116.11200019291464L205,135.83487469809393L206,180.13544246128626L207,128.55258628300254L208,145.08947467803952L209,128.60310581752228L210,158.03573840005055L211,140.1333757128034L212,125.51827934810089L213,174.21856805256434L214,78.58804321289057L215,141.29653072357175L216,118.53946985517224L217,175.0277246066502L218,136.34055233001706L219,126.63091482434949L220,161.17114468983237L221,170.02116639273504L222,129.86742046901153L222.99999999999997,166.228282724108L224,215.38372952597481L225,177.40455416270663L226,125.01260171617777L227,132.09257084982733L228,213.866576058524L229,172.34741612843104L230,166.9868594578334L231,78.33508382524757L232.00000000000003,104.17709173474988L233,184.5857432229178L234,98.0074387959071L235,123.44480814252576L236,153.93943609510146L237,66.75429439544672L238,184.5857432229178L239,130.52489784785675L240,182.31001302174158L241,125.11376135689868L242,192.01971081324984L243,154.29343455178395L244,136.29003279549732L245,181.7031154632568L246,179.02286727087838L247,121.82661560603546L248,158.13683775493075L249,94.87197222028455L250,117.17399556296208L251,157.63116012300762L252,135.37971660069053L253,150.95576926640098L254,107.31255831037244L255,141.85284846169606L256,172.49915558951238L257,204.91545500074113L258,203.44888135365076L259,143.7745199203491L260,156.82200356892173L261,111.20654133387968L262,136.8462299619402L263,123.24260943276538L264,129.5639415468488L265,61.292517798287456L266,158.79431513377597L267,145.49399266924175L268,103.67141410282674" style="fill: none;" fill="none"></path></g></g></g></g></g></g><g transform="translate(50, 177)" clip-path="url(#clip_1)"><clipPath id="clip_1"><rect width="280" height="23"></rect></clipPath><g><g><line x1="0" y1="0" x2="0" y2="5" style="visibility: inherit;" fill="rgb(0, 0, 0)" stroke="rgb(204, 204, 204)" stroke-width="1px"></line><line x1="20" y1="0" x2="20" y2="5" style="visibility: inherit;" fill="rgb(0, 0, 0)" stroke="rgb(204, 204, 204)" stroke-width="1px"></line><line x1="40" y1="0" x2="40" y2="5" style="visibility: inherit;" fill="rgb(0, 0, 0)" stroke="rgb(204, 204, 204)" stroke-width="1px"></line><line x1="60" y1="0" x2="60" y2="5" style="visibility: inherit;" fill="rgb(0, 0, 0)" stroke="rgb(204, 204, 204)" stroke-width="1px"></line><line x1="80" y1="0" x2="80" y2="5" style="visibility: inherit;" fill="rgb(0, 0, 0)" stroke="rgb(204, 204, 204)" stroke-width="1px"></line><line x1="100" y1="0" x2="100" y2="5" style="visibility: inherit;" fill="rgb(0, 0, 0)" stroke="rgb(204, 204, 204)" stroke-width="1px"></line><line x1="120" y1="0" x2="120" y2="5" style="visibility: inherit;" fill="rgb(0, 0, 0)" stroke="rgb(204, 204, 204)" stroke-width="1px"></line><line x1="140" y1="0" x2="140" y2="5" style="visibility: inherit;" fill="rgb(0, 0, 0)" stroke="rgb(204, 204, 204)" stroke-width="1px"></line><line x1="160" y1="0" x2="160" y2="5" style="visibility: inherit;" fill="rgb(0, 0, 0)" stroke="rgb(204, 204, 204)" stroke-width="1px"></line><line x1="180" y1="0" x2="180" y2="5" style="visibility: inherit;" fill="rgb(0, 0, 0)" stroke="rgb(204, 204, 204)" stroke-width="1px"></line><line x1="200" y1="0" x2="200" y2="5" style="visibility: inherit;" fill="rgb(0, 0, 0)" stroke="rgb(204, 204, 204)" stroke-width="1px"></line><line x1="220" y1="0" x2="220" y2="5" style="visibility: inherit;" fill="rgb(0, 0, 0)" stroke="rgb(204, 204, 204)" stroke-width="1px"></line><line x1="240" y1="0" x2="240" y2="5" style="visibility: inherit;" fill="rgb(0, 0, 0)" stroke="rgb(204, 204, 204)" stroke-width="1px"></line><line x1="260" y1="0" x2="260" y2="5" style="visibility: inherit;" fill="rgb(0, 0, 0)" stroke="rgb(204, 204, 204)" stroke-width="1px"></line><line x1="280" y1="0" x2="280" y2="5" style="visibility: inherit;" fill="rgb(0, 0, 0)" stroke="rgb(204, 204, 204)" stroke-width="1px"></line></g><g transform="translate(0, 8)"><text x="0" y="0" dx="0em" dy="0.95em" style="text-anchor: middle; visibility: hidden; font-family: Roboto, sans-serif; font-size: 12px; font-weight: 200;" fill="rgb(33, 33, 33)" stroke="none" stroke-width="1px">-200</text><text x="20" y="0" dx="0em" dy="0.95em" style="text-anchor: middle; visibility: inherit; font-family: Roboto, sans-serif; font-size: 12px; font-weight: 200;" fill="rgb(33, 33, 33)" stroke="none" stroke-width="1px">0</text><text x="40" y="0" dx="0em" dy="0.95em" style="text-anchor: middle; visibility: hidden; font-family: Roboto, sans-serif; font-size: 12px; font-weight: 200;" fill="rgb(33, 33, 33)" stroke="none" stroke-width="1px">200</text><text x="60" y="0" dx="0em" dy="0.95em" style="text-anchor: middle; visibility: inherit; font-family: Roboto, sans-serif; font-size: 12px; font-weight: 200;" fill="rgb(33, 33, 33)" stroke="none" stroke-width="1px">400</text><text x="80" y="0" dx="0em" dy="0.95em" style="text-anchor: middle; visibility: hidden; font-family: Roboto, sans-serif; font-size: 12px; font-weight: 200;" fill="rgb(33, 33, 33)" stroke="none" stroke-width="1px">600</text><text x="100" y="0" dx="0em" dy="0.95em" style="text-anchor: middle; visibility: inherit; font-family: Roboto, sans-serif; font-size: 12px; font-weight: 200;" fill="rgb(33, 33, 33)" stroke="none" stroke-width="1px">800</text><text x="120" y="0" dx="0em" dy="0.95em" style="text-anchor: middle; visibility: hidden; font-family: Roboto, sans-serif; font-size: 12px; font-weight: 200;" fill="rgb(33, 33, 33)" stroke="none" stroke-width="1px">1k</text><text x="140" y="0" dx="0em" dy="0.95em" style="text-anchor: middle; visibility: inherit; font-family: Roboto, sans-serif; font-size: 12px; font-weight: 200;" fill="rgb(33, 33, 33)" stroke="none" stroke-width="1px">1.2k</text><text x="160" y="0" dx="0em" dy="0.95em" style="text-anchor: middle; visibility: hidden; font-family: Roboto, sans-serif; font-size: 12px; font-weight: 200;" fill="rgb(33, 33, 33)" stroke="none" stroke-width="1px">1.4k</text><text x="180" y="0" dx="0em" dy="0.95em" style="text-anchor: middle; visibility: inherit; font-family: Roboto, sans-serif; font-size: 12px; font-weight: 200;" fill="rgb(33, 33, 33)" stroke="none" stroke-width="1px">1.6k</text><text x="200" y="0" dx="0em" dy="0.95em" style="text-anchor: middle; visibility: hidden; font-family: Roboto, sans-serif; font-size: 12px; font-weight: 200;" fill="rgb(33, 33, 33)" stroke="none" stroke-width="1px">1.8k</text><text x="220" y="0" dx="0em" dy="0.95em" style="text-anchor: middle; visibility: inherit; font-family: Roboto, sans-serif; font-size: 12px; font-weight: 200;" fill="rgb(33, 33, 33)" stroke="none" stroke-width="1px">2k</text><text x="240" y="0" dx="0em" dy="0.95em" style="text-anchor: middle; visibility: hidden; font-family: Roboto, sans-serif; font-size: 12px; font-weight: 200;" fill="rgb(33, 33, 33)" stroke="none" stroke-width="1px">2.2k</text><text x="260" y="0" dx="0em" dy="0.95em" style="text-anchor: middle; visibility: inherit; font-family: Roboto, sans-serif; font-size: 12px; font-weight: 200;" fill="rgb(33, 33, 33)" stroke="none" stroke-width="1px">2.4k</text><text x="280" y="0" dx="0em" dy="0.95em" style="text-anchor: middle; visibility: hidden; font-family: Roboto, sans-serif; font-size: 12px; font-weight: 200;" fill="rgb(33, 33, 33)" stroke="none" stroke-width="1px">2.6k</text></g><line x1="0" y1="0" x2="280" y2="0" fill="rgb(0, 0, 0)" stroke="rgb(204, 204, 204)" stroke-width="1px"></line></g></g></g></g></svg>