<svg viewBox="0 0 330 200" xmlns="http://www.w3.org/2000/svg"><g><g><g><g><g><line x1="51.5625" y1="176.3741770036295" x2="46.5625" y2="176.3741770036295" style="visibility: inherit;" fill="rgb(0, 0, 0)" stroke="rgb(204, 204, 204)" stroke-width="1px"></line><line x1="51.5625" y1="170.26187360463487" x2="46.5625" y2="170.26187360463487" style="visibility: inherit;" fill="rgb(0, 0, 0)" stroke="rgb(204, 204, 204)" stroke-width="1px"></line><line x1="51.5625" y1="164.87043991225377" x2="46.5625" y2="164.87043991225377" style="visibility: inherit;" fill="rgb(0, 0, 0)" stroke="rgb(204, 204, 204)" stroke-width="1px"></line><line x1="51.5625" y1="160.0476381327051" x2="46.5625" y2="160.0476381327051" style="visibility: inherit;" fill="rgb(0, 0, 0)" stroke="rgb(204, 204, 204)" stroke-width="1px"></line><line x1="51.5625" y1="128.31932477905528" x2="46.5625" y2="128.31932477905528" style="visibility: inherit;" fill="rgb(0, 0, 0)" stroke="rgb(204, 204, 204)" stroke-width="1px"></line><line x1="51.5625" y1="109.75945125603985" x2="46.5625" y2="109.75945125603985" style="visibility: inherit;" fill="rgb(0, 0, 0)" stroke="rgb(204, 204, 204)" stroke-width="1px"></line><line x1="51.5625" y1="96.59101142540544" x2="46.5625" y2="96.59101142540544" style="visibility: inherit;" fill="rgb(0, 0, 0)" stroke="rgb(204, 204, 204)" stroke-width="1px"></line><line x1="51.5625" y1="86.37677595347573" x2="46.5625" y2="86.37677595347573" style="visibility: inherit;" fill="rgb(0, 0, 0)" stroke="rgb(204, 204, 204)" stroke-width="1px"></line><line x1="51.5625" y1="78.03113790239001" x2="46.5625" y2="78.03113790239001" style="visibility: inherit;" fill="rgb(0, 0, 0)" stroke="rgb(204, 204, 204)" stroke-width="1px"></line><line x1="51.5625" y1="70.97500147075024" x2="46.5625" y2="70.97500147075024" style="visibility: inherit;" fill="rgb(0, 0, 0)" stroke="rgb(204, 204, 204)" stroke-width="1px"></line><line x1="51.5625" y1="64.86269807175562" x2="46.5625" y2="64.86269807175562" style="visibility: inherit;" fill="rgb(0, 0, 0)" stroke="rgb(204, 204, 204)" stroke-width="1px"></line><line x1="51.5625" y1="59.471264379374595" x2="46.5625" y2="59.471264379374595" style="visibility: inherit;" fill="rgb(0, 0, 0)" stroke="rgb(204, 204, 204)" stroke-width="1px"></line><line x1="51.5625" y1="54.64846259982591" x2="46.5625" y2="54.64846259982591" style="visibility: inherit;" fill="rgb(0, 0, 0)" stroke="rgb(204, 204, 204)" stroke-width="1px"></line><line x1="51.5625" y1="22.9201492461761" x2="46.5625" y2="22.9201492461761" style="visibility: inherit;" fill="rgb(0, 0, 0)" stroke="rgb(204, 204, 204)" stroke-width="1px"></line><line x1="51.5625" y1="4.36027572316058" x2="46.5625" y2="4.36027572316058" style="visibility: inherit;" fill="rgb(0, 0, 0)" stroke="rgb(204, 204, 204)" stroke-width="1px"></line></g><g transform="translate(41.5625, 0)"><text x="0" y="176.3741770036295" dx="0em" dy="0.3em" style="text-anchor: end; visibility: hidden; font-family: Roboto, sans-serif; font-size: 12px; font-weight: 200;" fill="rgb(33, 33, 33)" stroke="none" stroke-width="1px">7e-7</text><text x="0" y="170.26187360463487" dx="0em" dy="0.3em" style="text-anchor: end; visibility: inherit; font-family: Roboto, sans-serif; font-size: 12px; font-weight: 200;" fill="rgb(33, 33, 33)" stroke="none" stroke-width="1px">8e-7</text><text x="0" y="164.87043991225377" dx="0em" dy="0.3em" style="text-anchor: end; visibility: hidden; font-family: Roboto, sans-serif; font-size: 12px; font-weight: 200;" fill="rgb(33, 33, 33)" stroke="none" stroke-width="1px">9e-7</text><text x="0" y="160.0476381327051" dx="0em" dy="0.3em" style="text-anchor: end; visibility: hidden; font-family: Roboto, sans-serif; font-size: 12px; font-weight: 200;" fill="rgb(33, 33, 33)" stroke="none" stroke-width="1px">1e-6</text><text x="0" y="128.31932477905528" dx="0em" dy="0.3em" style="text-anchor: end; visibility: hidden; font-family: Roboto, sans-serif; font-size: 12px; font-weight: 200;" fill="rgb(33, 33, 33)" stroke="none" stroke-width="1px">2e-6</text><text x="0" y="109.75945125603985" dx="0em" dy="0.3em" style="text-anchor: end; visibility: inherit; font-family: Roboto, sans-serif; font-size: 12px; font-weight: 200;" fill="rgb(33, 33, 33)" stroke="none" stroke-width="1px">3e-6</text><text x="0" y="96.59101142540544" dx="0em" dy="0.3em" style="text-anchor: end; visibility: hidden; font-family: Roboto, sans-serif; font-size: 12px; font-weight: 200;" fill="rgb(33, 33, 33)" stroke="none" stroke-width="1px">4e-6</text><text x="0" y="86.37677595347573" dx="0em" dy="0.3em" style="text-anchor: end; visibility: hidden; font-family: Roboto, sans-serif; font-size: 12px; font-weight: 200;" fill="rgb(33, 33, 33)" stroke="none" stroke-width="1px">5e-6</text><text x="0" y="78.03113790239001" dx="0em" dy="0.3em" style="text-anchor: end; visibility: hidden; font-family: Roboto, sans-serif; font-size: 12px; font-weight: 200;" fill="rgb(33, 33, 33)" stroke="none" stroke-width="1px">6e-6</text><text x="0" y="70.97500147075024" dx="0em" dy="0.3em" style="text-anchor: end; visibility: inherit; font-family: Roboto, sans-serif; font-size: 12px; font-weight: 200;" fill="rgb(33, 33, 33)" stroke="none" stroke-width="1px">7e-6</text><text x="0" y="64.86269807175562" dx="0em" dy="0.3em" style="text-anchor: end; visibility: hidden; font-family: Roboto, sans-serif; font-size: 12px; font-weight: 200;" fill="rgb(33, 33, 33)" stroke="none" stroke-width="1px">8e-6</text><text x="0" y="59.471264379374595" dx="0em" dy="0.3em" style="text-anchor: end; visibility: hidden; font-family: Roboto, sans-serif; font-size: 12px; font-weight: 200;" fill="rgb(33, 33, 33)" stroke="none" stroke-width="1px">9e-6</text><text x="0" y="54.64846259982591" dx="0em" dy="0.3em" style="text-anchor: end; visibility: hidden; font-family: Roboto, sans-serif; font-size: 12px; font-weight: 200;" fill="rgb(33, 33, 33)" stroke="none" stroke-width="1px">1e-5</text><text x="0" y="22.9201492461761" dx="0em" dy="0.3em" style="text-anchor: end; visibility: inherit; font-family: Roboto, sans-serif; font-size: 12px; font-weight: 200;" fill="rgb(33, 33, 33)" stroke="none" stroke-width="1px">2e-5</text><text x="0" y="4.36027572316058" dx="0em" dy="0.3em" style="text-anchor: end; visibility: hidden; font-family: Roboto, sans-serif; font-size: 12px; font-weight: 200;" fill="rgb(33, 33, 33)" stroke="none" stroke-width="1px">3e-5</text></g><line x1="51.5625" y1="0" x2="51.5625" y2="177" fill="rgb(0, 0, 0)" stroke="rgb(204, 204, 204)" stroke-width="1px"></line></g></g><g transform="translate(51, 0)" clip-path="url(#clip_0)"><clipPath id="clip_0"><rect width="278" height="177"></rect></clipPath><g><g><g><line x1="0" y1="0" x2="0" y2="177" fill="rgb(0, 0, 0)" stroke="rgb(66, 66, 66)" stroke-width="1px" opacity="0.25"></line><line x1="19.888392857142858" y1="0" x2="19.888392857142858" y2="177" fill="rgb(0, 0, 0)" stroke="rgb(66, 66, 66)" stroke-width="1px" opacity="0.25"></line><line x1="39.776785714285715" y1="0" x2="39.776785714285715" y2="177" fill="rgb(0, 0, 0)" stroke="rgb(66, 66, 66)" stroke-width="1px" opacity="0.25"></line><line x1="59.66517857142857" y1="0" x2="59.66517857142857" y2="177" fill="rgb(0, 0, 0)" stroke="rgb(66, 66, 66)" stroke-width="1px" opacity="0.25"></line><line x1="79.55357142857143" y1="0" x2="79.55357142857143" y2="177" fill="rgb(0, 0, 0)" stroke="rgb(66, 66, 66)" stroke-width="1px" opacity="0.25"></line><line x1="99.44196428571429" y1="0" x2="99.44196428571429" y2="177" fill="rgb(0, 0, 0)" stroke="rgb(66, 66, 66)" stroke-width="1px" opacity="0.25"></line><line x1="119.33035714285714" y1="0" x2="119.33035714285714" y2="177" fill="rgb(0, 0, 0)" stroke="rgb(66, 66, 66)" stroke-width="1px" opacity="0.25"></line><line x1="139.21875" y1="0" x2="139.21875" y2="177" fill="rgb(0, 0, 0)" stroke="rgb(66, 66, 66)" stroke-width="1px" opacity="0.25"></line><line x1="159.10714285714286" y1="0" x2="159.10714285714286" y2="177" fill="rgb(0, 0, 0)" stroke="rgb(66, 66, 66)" stroke-width="1px" opacity="0.25"></line><line x1="178.99553571428572" y1="0" x2="178.99553571428572" y2="177" fill="rgb(0, 0, 0)" stroke="rgb(66, 66, 66)" stroke-width="1px" opacity="0.25"></line><line x1="198.88392857142858" y1="0" x2="198.88392857142858" y2="177" fill="rgb(0, 0, 0)" stroke="rgb(66, 66, 66)" stroke-width="1px" opacity="0.25"></line><line x1="218.77232142857142" y1="0" x2="218.77232142857142" y2="177" fill="rgb(0, 0, 0)" stroke="rgb(66, 66, 66)" stroke-width="1px" opacity="0.25"></line><line x1="238.66071428571428" y1="0" x2="238.66071428571428" y2="177" fill="rgb(0, 0, 0)" stroke="rgb(66, 66, 66)" stroke-width="1px" opacity="0.25"></line><line x1="258.54910714285717" y1="0" x2="258.54910714285717" y2="177" fill="rgb(0, 0, 0)" stroke="rgb(66, 66, 66)" stroke-width="1px" opacity="0.25"></line><line x1="278.4375" y1="0" x2="278.4375" y2="177" fill="rgb(0, 0, 0)" stroke="rgb(66, 66, 66)" stroke-width="1px" opacity="0.25"></line></g><g><line x1="0" y1="176.3741770036295" x2="278.4375" y2="176.3741770036295" fill="rgb(0, 0, 0)" stroke="rgb(66, 66, 66)" stroke-width="1px" opacity="0.25"></line><line x1="0" y1="170.26187360463487" x2="278.4375" y2="170.26187360463487" fill="rgb(0, 0, 0)" stroke="rgb(66, 66, 66)" stroke-width="1px" opacity="0.25"></line><line x1="0" y1="164.87043991225377" x2="278.4375" y2="164.87043991225377" fill="rgb(0, 0, 0)" stroke="rgb(66, 66, 66)" stroke-width="1px" opacity="0.25"></line><line x1="0" y1="160.0476381327051" x2="278.4375" y2="160.0476381327051" fill="rgb(0, 0, 0)" stroke="rgb(66, 66, 66)" stroke-width="1px" opacity="0.25"></line><line x1="0" y1="128.31932477905528" x2="278.4375" y2="128.31932477905528" fill="rgb(0, 0, 0)" stroke="rgb(66, 66, 66)" stroke-width="1px" opacity="0.25"></line><line x1="0" y1="109.75945125603985" x2="278.4375" y2="109.75945125603985" fill="rgb(0, 0, 0)" stroke="rgb(66, 66, 66)" stroke-width="1px" opacity="0.25"></line><line x1="0" y1="96.59101142540544" x2="278.4375" y2="96.59101142540544" fill="rgb(0, 0, 0)" stroke="rgb(66, 66, 66)" stroke-width="1px" opacity="0.25"></line><line x1="0" y1="86.37677595347573" x2="278.4375" y2="86.37677595347573" fill="rgb(0, 0, 0)" stroke="rgb(66, 66, 66)" stroke-width="1px" opacity="0.25"></line><line x1="0" y1="78.03113790239001" x2="278.4375" y2="78.03113790239001" fill="rgb(0, 0, 0)" stroke="rgb(66, 66, 66)" stroke-width="1px" opacity="0.25"></line><line x1="0" y1="70.97500147075024" x2="278.4375" y2="70.97500147075024" fill="rgb(0, 0, 0)" stroke="rgb(66, 66, 66)" stroke-width="1px" opacity="0.25"></line><line x1="0" y1="64.86269807175562" x2="278.4375" y2="64.86269807175562" fill="rgb(0, 0, 0)" stroke="rgb(66, 66, 66)" stroke-width="1px" opacity="0.25"></line><line x1="0" y1="59.471264379374595" x2="278.4375" y2="59.471264379374595" fill="rgb(0, 0, 0)" stroke="rgb(66, 66, 66)" stroke-width="1px" opacity="0.25"></line><line x1="0" y1="54.64846259982591" x2="278.4375" y2="54.64846259982591" fill="rgb(0, 0, 0)" stroke="rgb(66, 66, 66)" stroke-width="1px" opacity="0.25"></line><line x1="0" y1="22.9201492461761" x2="278.4375" y2="22.9201492461761" fill="rgb(0, 0, 0)" stroke="rgb(66, 66, 66)" stroke-width="1px" opacity="0.25"></line><line x1="0" y1="4.36027572316058" x2="278.4375" y2="4.36027572316058" fill="rgb(0, 0, 0)" stroke="rgb(66, 66, 66)" stroke-width="1px" opacity="0.25"></line></g></g></g><g><g><line x1="19.888392857142858" y1="0" x2="19.888392857142858" y2="177" fill="rgb(0, 0, 0)" stroke="rgb(153, 153, 153)" stroke-width="1.5px"></line></g></g><g><g><g><g><g><path stroke="rgb(255, 112, 67)" stroke-width="2px" d="M20.8828125,23.104795675442357L21.877232142857142,23.22058097003539L22.871651785714285,23.350893879557297L23.866071428571427,23.494177838753927L24.860491071428573,23.64856903635112L25.854910714285715,23.81213753087491L26.849330357142858,23.98306525414207L27.84375,24.159765218559997L28.838169642857146,24.340931094095367L29.832589285714285,24.52553546264376L30.827008928571427,24.712805879622785L31.82142857142857,24.902175044475726L32.815848214285715,25.093238849742587L33.810267857142854,25.285714285714295L34.8046875,25.479412128397875L35.79910714285714,25.674204139795535L36.793526785714285,25.87000659933806L37.78794642857142,26.066764529905115L38.78236607142857,26.264447889958113L39.776785714285715,26.463037721391892L40.77120535714286,26.662524381712707L41.765625,26.86290256318095L42.760044642857146,27.064175347785053L43.754464285714285,27.26634566632357L44.74888392857143,27.469418316941013L45.74330357142857,27.673397484359217L46.73772321428571,27.87829260109927L47.732142857142854,28.08411080493444L48.7265625,28.290859749709178L49.720982142857146,28.49854557409703L50.715401785714285,28.70717919044934L51.70982142857143,28.91676881330231L52.70424107142857,29.127322954452872L53.698660714285715,29.33884843979971L54.693080357142854,29.5513568692181L55.6875,29.764857042220243L56.681919642857146,29.979358030274486L57.67633928571429,30.194867170399398L58.67075892857143,30.411396655730613L59.66517857142857,30.62895582465482L60.659598214285715,30.84755429432384L61.654017857142854,31.067199918093806L62.6484375,31.287905504211857L63.64285714285714,31.50968095841466L64.63727678571429,31.732536477968623L65.63169642857143,31.956480469655265L66.62611607142857,32.18152640041998L67.62053571428571,32.40768478698972L68.61495535714286,32.63496645234694L69.609375,32.863380402414606L70.60379464285714,33.09294081377757L71.59821428571428,33.32365886413953L72.59263392857143,33.55554605366193L73.58705357142857,33.78861203864569L74.58147321428571,34.02287176190978L75.57589285714285,34.25833711763423L76.5703125,34.49502034020662L77.56473214285714,34.73293179313405L78.55915178571429,34.972087248039216L79.55357142857143,35.21249937705296L80.54799107142858,35.45418011709611L81.54241071428572,35.69714432689999L82.53683035714286,35.94140433619477L83.53125,36.186975442463435L84.52566964285714,36.433870398993534L85.52008928571429,36.682104968914196L86.51450892857143,36.931692352846326L87.50892857142857,37.182648802707995L88.50334821428571,37.434987988400145L89.49776785714286,37.68872667315223L90.4921875,37.94387901818229L91.48660714285714,38.20046232112297L92.48102678571428,38.45849125738498L93.47544642857142,38.71798368315211L94.46986607142857,38.97895481207123L95.46428571428571,39.24142308431762L96.45870535714286,39.50540427716547L97.453125,39.77091744166358L98.44754464285715,40.037978945583326L99.44196428571429,40.306608479294724L100.43638392857143,40.576823029533884L101.43080357142857,40.84864295612466L102.42522321428572,41.122085894953074L103.41964285714286,41.397172907239586L104.4140625,41.67392231005066L105.40848214285714,41.95235589988952L106.40290178571428,42.232492709016256L107.39732142857143,42.51435530519096L108.39174107142857,42.79796475743887L109.38616071428571,43.083341362795416L110.38058035714285,43.37050899286181L111.375,43.65948867608119L112.36941964285714,43.95030510806297L113.36383928571429,44.24298014077561L114.35825892857143,44.53753936856792L115.35267857142858,44.83400553009282L116.34709821428572,45.132405176936274L117.34151785714286,45.43276198902346L118.3359375,45.7351035298462L119.33035714285714,46.03945447420524L120.32477678571429,46.34584345302371L121.31919642857143,46.65429619153582L122.31361607142857,46.96484244637221L123.30803571428571,47.27750905197614L124.30245535714286,47.59232695260573L125.296875,47.90932415457897L126.29129464285714,48.22853285589475L127.28571428571428,48.549982301778165L128.28013392857142,48.87370601472137L129.27455357142858,49.199734550687275L130.26897321428572,49.52810283248665L131.26339285714286,49.858842803887725L132.2578125,50.19199086937558L133.25223214285714,50.52758044330033L134.24665178571428,50.865649499204274L135.24107142857142,51.206233011022476L136.23549107142856,51.549370615311545L137.22991071428572,51.89509894139079L138.22433035714286,52.2434593899667L139.21875,52.594490348970915L140.21316964285714,52.94823509224342L141.20758928571428,53.304733877685685L142.20200892857142,53.66403196984642L143.19642857142856,54.02617161686314L144.19084821428572,54.391200200988116L145.18526785714286,54.75916209063695L146.1796875,55.13010692310119L147.17410714285714,55.50408132786055L148.16852678571428,55.88113734595161L149.16294642857142,56.26132402052918L150.15736607142856,56.644695957600966L151.1517857142857,57.03130477964351L152.14620535714283,57.42120783267023L153.140625,57.81445949851855L154.13504464285714,58.21112005349735L155.12946428571428,58.6112468347618L156.12388392857142,59.01490325608666L157.11830357142858,59.42214982353581L158.11272321428572,59.833053314233474L159.10714285714286,60.2476776363133L160.1015625,60.66609317691419L161.09598214285717,61.088367501160214L162.0904017857143,61.51457487599166L163.08482142857144,61.94478680268277L164.07924107142858,62.3790817235371L165.07366071428572,62.817535382193896L166.06808035714286,63.26023072067394L167.0625,63.707248061455374L168.05691964285714,64.15867520285823L169.05133928571428,64.61459741658902L170.04575892857144,65.07510775000189L171.04017857142858,65.54029683251903L172.03459821428572,66.01026339391075L173.02901785714286,66.48510495103189L174.0234375,66.96492381406709L175.01785714285714,67.44982550174292L176.01227678571428,67.93991889611796L177.00669642857142,68.43531639872388L178.00111607142856,68.93613409098683L178.99553571428572,69.44249190093761L179.98995535714286,69.95451377767863L180.984375,70.47232787476808L181.97879464285714,70.9960667435193L182.97321428571428,71.52586753713635L183.96763392857142,72.0618722265902L184.96205357142856,72.60422782915484L185.9564732142857,73.1530866505683L186.95089285714283,73.70860654184072L187.9453125,74.27095117180892L188.93973214285714,74.84029031662537L189.93415178571428,75.41680016746724L190.92857142857142,76.0006636578647L191.92299107142858,76.59207081217293L192.91741071428572,77.19121911684813L193.91183035714286,77.79831391634602L194.90625,78.41356883562699L195.90066964285717,79.03720623144443L196.8950892857143,79.669457674802L197.88950892857144,80.3105644671997L198.88392857142858,80.96077819354802L199.87834821428572,81.62036131492192L200.87276785714286,82.28958780464863L201.8671875,82.96874383158841L202.86160714285714,83.65812849487276L203.85602678571428,84.35805461482087L204.85044642857144,85.06884958527105L205.84486607142858,85.79085629313767L206.83928571428572,86.52443411165976L207.83370535714286,87.26995997454416L208.828125,88.02782953903841L209.82254464285714,88.79845844691962L210.81696428571428,89.58228369345933L211.81138392857142,90.37976511565381L212.80580357142856,91.19138701240946L213.80022321428572,92.01765991097683L214.79464285714286,92.85912249576768L215.7890625,93.71634371780235L216.78348214285714,94.58992510547581L217.77790178571428,95.4805033001465L218.77232142857142,96.38875284331962L219.76674107142856,97.31538924598823L220.7611607142857,98.26117345458276L221.75558035714283,99.22691196140975L222.75,100.21346513468467L223.74441964285714,101.22175013389739L224.73883928571428,102.25274605590455L225.73325892857142,103.30749966227106L226.72767857142858,104.38713177496118L227.72209821428572,105.49284444023336L228.71651785714286,106.62592897668677L229.7109375,107.78777504326882L230.70535714285717,108.9798808873582L231.6997767857143,110.20386496273754L232.69419642857144,111.46147914361627L233.68861607142858,112.75462380549652L234.68303571428572,114.0853650987414L235.67745535714286,115.45595480899655L236.671875,116.86885328379284L237.66629464285714,118.32675601156646L238.66071428571428,119.83262457439723L239.65513392857144,121.38972286762012L240.64955357142858,123.00165969976449L241.64397321428572,124.67243917095956L242.63839285714286,126.40652059897752L243.6328125,128.2088912883729L244.62723214285714,130.0851495108943L245.62165178571428,132.0416133739257L246.61607142857142,134.08544761913612L247.61049107142856,136.22482203309366L248.60491071428572,138.46910871360285L249.59933035714286,140.8291302304163L250.59375,143.31747530437588L251.58816964285714,145.94890532791104L252.58258928571428,148.74088502446088L253.57700892857142,151.7142857142857L254.57142857142856,154.89433327631983L255.5658482142857,158.31191166932453L256.56026785714283,162.00538882971904L257.5546875,166.02325433804668L258.54910714285717,170.42802317366912L259.5435267857143,175.30222763077936L260.53794642857144,180.75799586458555" style="fill: none;" fill="none"></path></g></g></g></g><g opacity="0.2"><g><g><g><path stroke="rgb(255, 112, 67)" stroke-width="2px" d="M20.8828125,23.104795675442357L21.877232142857142,23.290192989036015L22.871651785714285,23.476344263003035L23.866071428571427,23.663255654695035L24.860491071428573,23.85092914853363L25.854910714285715,24.03937953439867L26.849330357142858,24.228608969335482L27.84375,24.41862392122947L28.838169642857146,24.609430938848742L29.832589285714285,24.801032315423978L30.827008928571427,24.993443422859578L31.82142857142857,25.18666674115598L32.815848214285715,25.38070915644332L33.810267857142854,25.575573230999492L34.8046875,25.771274833046785L35.79910714285714,25.967816724040226L36.793526785714285,26.165206151047805L37.78794642857142,26.363445966904987L38.78236607142857,26.56255256585639L39.776785714285715,26.762529013401977L40.77120535714286,26.963382943220108L41.765625,27.16511752222749L42.760044642857146,27.367749702872878L43.754464285714285,27.5712828794213L44.74888392857143,27.77572510015726L45.74330357142857,27.981079871842432L46.73772321428571,28.18736474004799L47.732142857142854,28.39458345489507L48.7265625,28.6027445098505L49.720982142857146,28.81185177977737L50.715401785714285,29.021923441320823L51.70982142857143,29.232963630189623L52.70424107142857,29.444981318481304L53.698660714285715,29.65798078019817L54.693080357142854,29.871980864375587L55.6875,30.08698612499134L56.681919642857146,30.303006049422827L57.67633928571429,30.520045344959307L58.67075892857143,30.738123578083957L59.66517857142857,30.957245757024822L60.659598214285715,31.17742192466473L61.654017857142854,31.398657259209486L62.6484375,31.620972093817702L63.64285714285714,31.844371930648062L64.63727678571429,32.06886741231752L65.63169642857143,32.29446422948661L66.62611607142857,32.521183535872595L67.62053571428571,32.74903137140186L68.61495535714286,32.978019027144796L69.609375,33.20815275215033L70.60379464285714,33.439454579789825L71.59821428571428,33.671931136272875L72.59263392857143,33.905594414892356L73.58705357142857,34.140451273974534L74.58147321428571,34.376524691486416L75.57589285714285,34.61382193371699L76.5703125,34.85235575564123L77.56473214285714,35.09213368134987L78.55915178571429,35.3331797049229L79.55357142857143,35.57550179249755L80.54799107142858,35.819110767479344L81.54241071428572,36.06402593391261L82.53683035714286,36.31025578167622L83.53125,36.557820124262285L84.52566964285714,36.806727851697254L85.52008928571429,37.056999308009345L86.51450892857143,37.30864380240495L87.50892857142857,37.561682231679505L88.50334821428571,37.81612434434559L89.49776785714286,38.07199161341592L90.4921875,38.32929424800387L91.48660714285714,38.58805432209158L92.48102678571428,38.848282527937464L93.47544642857142,39.110001566634395L94.46986607142857,39.373222637468565L95.46428571428571,39.637969096271185L96.45870535714286,39.904252674671476L97.453125,40.172097412455635L98.44754464285715,40.441515600447275L99.44196428571429,40.712531993306904L100.43638392857143,40.98515946955107L101.43080357142857,41.25942353145691L102.42522321428572,41.53533767550244L103.41964285714286,41.81292818627931L104.4140625,42.09220921039559L105.40848214285714,42.37320785155468L106.40290178571428,42.65593894070776L107.39732142857143,42.94043043972191L108.39174107142857,43.22670114411135L109.38616071428571,43.51477018396308L110.38058035714285,43.804666886968626L111.375,44.09640795948205L112.36941964285714,44.39002369600429L113.36383928571429,44.685531625459255L114.35825892857143,44.98296305754022L115.35267857142858,45.28233638929964L116.34709821428572,45.58368399715417L117.34151785714286,45.88702519494172L118.3359375,46.19239348073277L119.33035714285714,46.49980913715974L120.32477678571429,46.80930684255194L121.31919642857143,47.12090790397589L122.31361607142857,47.434648242600666L123.30803571428571,47.75055024950231L124.30245535714286,48.06865115557823L125.296875,48.38897449976041L126.29129464285714,48.71155889423431L127.28571428571428,49.036429094275285L128.28013392857142,49.36362516998758L129.27455357142858,49.693173166525895L130.26897321428572,50.02511469405602L131.26339285714286,50.35947716664507L132.2578125,50.69630382266226L133.25223214285714,51.03562353011394L134.24665178571428,51.37748125025094L135.24107142857142,51.7219073965888L136.23549107142856,52.06894875506915L137.22991071428572,52.41863738343911L138.22433035714286,52.77102200193045L139.21875,53.12613641907172L140.21316964285714,53.4840314075059L141.20758928571428,53.844742641672205L142.20200892857142,54.20832307408069L143.19642857142856,54.57481036962554L144.19084821428572,54.94425979838024L145.18526785714286,55.31671115058658L146.1796875,55.69222216282804L147.17410714285714,56.070834896976486L148.16852678571428,56.4526097174507L149.16294642857142,56.83759111659188L150.15736607142856,57.225842261620485L151.1517857142857,57.61741024805047L152.14620535714283,58.01236123592841L153.140625,58.41074511197689L154.13504464285714,58.81263123574239L155.12946428571428,59.21807249017776L156.12388392857142,59.627141659443815L157.11830357142858,60.039894846596006L158.11272321428572,60.45640850598519L159.10714285714286,60.87674220559865L160.1015625,61.300976338300096L161.09598214285717,61.729174205180804L162.0904017857143,62.16142043127588L163.08482142857144,62.59778234500425L164.07924107142858,63.038349125506784L165.07366071428572,63.48319245188687L166.06808035714286,63.93240641094762L167.0625,64.38606738848148L168.05691964285714,64.84427476795236L169.05133928571428,65.30711003451121L170.04575892857144,65.77467829709234L171.04017857142858,66.24706657414646L172.03459821428572,66.72438617371184L173.02901785714286,67.20673286672447L174.0234375,67.69421646850924L175.01785714285714,68.18694757229962L176.01227678571428,68.68504038169428L177.00669642857142,69.18861286953698L178.00111607142856,69.69778694563317L178.99553571428572,70.21268863390064L179.98995535714286,70.73344825959677L180.984375,71.2602006473199L181.97879464285714,71.79308533053587L182.97321428571428,72.33224677344559L183.96763392857142,72.87783460607497L184.96205357142856,73.43000387354607L185.9564732142857,73.98891530056598L186.95089285714283,74.55473557226465L187.9453125,75.127637632608L188.93973214285714,75.70780100172307L189.93415178571428,76.29541211359313L190.92857142857142,76.89066467571018L191.92299107142858,77.49376005242284L192.91741071428572,78.1049076738767L193.91183035714286,78.72432547262599L194.90625,79.35224035019337L195.90066964285717,79.98888867607798L196.8950892857143,80.63451682195833L197.88950892857144,81.28938173411014L198.88392857142858,81.95375154736885L199.87834821428572,82.6279062443069L200.87276785714286,83.312138363683L201.8671875,84.0067537626487L202.86160714285714,84.71207243768316L203.85602678571428,85.42842940977211L204.85044642857144,86.15617567995822L205.84486607142858,86.89567926208743L206.83928571428572,87.64732630035556L207.83370535714286,88.41152228015213L208.828125,89.18869334170695L209.82254464285714,89.9792877071931L210.81696428571428,90.78377723325345L211.81138392857142,91.60265910241479L212.80580357142856,92.4364576685713L213.80022321428572,93.28572647369165L214.79464285714286,94.15105045517294L215.7890625,95.0330483658879L216.78348214285714,95.93237543200038L217.77790178571428,96.8497262771467L218.77232142857142,97.78583814567266L219.76674107142856,98.74149446239423L220.7611607142857,99.7175315578452L221.75558035714283,100.71483195461431L222.75,101.73434575657087L223.74441964285714,102.77708509229888L224.73883928571428,103.84413288099614L225.73325892857142,104.9366495920601L226.72767857142858,106.05588083126236L227.72209821428572,107.20316587785265L228.71651785714286,108.37994731931815L229.7109375,109.58778195763573L230.70535714285717,110.82835319384431L231.6997767857143,112.1034851381153L232.69419642857144,113.41515874209917L233.68861607142858,114.7655303116401L234.68303571428572,116.1569528341836L235.67745535714286,117.59200065056528L236.671875,119.07349812093736L237.66629464285714,120.60455308680912L238.66071428571428,122.18859612556774L239.65513392857144,123.82942684401904L240.64955357142858,125.5312687821355L241.64397321428572,127.29883492321453L242.63839285714286,129.13740636836616L243.6328125,131.05293024528623L244.62723214285714,133.05212472222743L245.62165178571428,135.14263765612904L246.61607142857142,137.33321243699396L247.61049107142856,139.63391158889561L248.60491071428572,142.05639624779604L249.59933035714286,144.6142838134965L250.59375,147.32361157850207L251.58816964285714,150.20344640363533L252.58258928571428,153.2766993815043L253.57700892857142,156.57123419479748L254.57142857142856,160.12140616674964L255.5658482142857,163.97025272260865L256.56026785714283,168.17267694605619L257.5546875,172.80027860954104L258.54910714285717,177.94887694471322" style="fill: none;" fill="none"></path></g></g></g></g></g></g><g transform="translate(51, 177)" clip-path="url(#clip_1)"><clipPath id="clip_1"><rect width="278" height="23"></rect></clipPath><g><g><line x1="0" y1="0" x2="0" y2="5" style="visibility: inherit;" fill="rgb(0, 0, 0)" stroke="rgb(204, 204, 204)" stroke-width="1px"></line><line x1="19.888392857142858" y1="0" x2="19.888392857142858" y2="5" style="visibility: inherit;" fill="rgb(0, 0, 0)" stroke="rgb(204, 204, 204)" stroke-width="1px"></line><line x1="39.776785714285715" y1="0" x2="39.776785714285715" y2="5" style="visibility: inherit;" fill="rgb(0, 0, 0)" stroke="rgb(204, 204, 204)" stroke-width="1px"></line><line x1="59.66517857142857" y1="0" x2="59.66517857142857" y2="5" style="visibility: inherit;" fill="rgb(0, 0, 0)" stroke="rgb(204, 204, 204)" stroke-width="1px"></line><line x1="79.55357142857143" y1="0" x2="79.55357142857143" y2="5" style="visibility: inherit;" fill="rgb(0, 0, 0)" stroke="rgb(204, 204, 204)" stroke-width="1px"></line><line x1="99.44196428571429" y1="0" x2="99.44196428571429" y2="5" style="visibility: inherit;" fill="rgb(0, 0, 0)" stroke="rgb(204, 204, 204)" stroke-width="1px"></line><line x1="119.33035714285714" y1="0" x2="119.33035714285714" y2="5" style="visibility: inherit;" fill="rgb(0, 0, 0)" stroke="rgb(204, 204, 204)" stroke-width="1px"></line><line x1="139.21875" y1="0" x2="139.21875" y2="5" style="visibility: inherit;" fill="rgb(0, 0, 0)" stroke="rgb(204, 204, 204)" stroke-width="1px"></line><line x1="159.10714285714286" y1="0" x2="159.10714285714286" y2="5" style="visibility: inherit;" fill="rgb(0, 0, 0)" stroke="rgb(204, 204, 204)" stroke-width="1px"></line><line x1="178.99553571428572" y1="0" x2="178.99553571428572" y2="5" style="visibility: inherit;" fill="rgb(0, 0, 0)" stroke="rgb(204, 204, 204)" stroke-width="1px"></line><line x1="198.88392857142858" y1="0" x2="198.88392857142858" y2="5" style="visibility: inherit;" fill="rgb(0, 0, 0)" stroke="rgb(204, 204, 204)" stroke-width="1px"></line><line x1="218.77232142857142" y1="0" x2="218.77232142857142" y2="5" style="visibility: inherit;" fill="rgb(0, 0, 0)" stroke="rgb(204, 204, 204)" stroke-width="1px"></line><line x1="238.66071428571428" y1="0" x2="238.66071428571428" y2="5" style="visibility: inherit;" fill="rgb(0, 0, 0)" stroke="rgb(204, 204, 204)" stroke-width="1px"></line><line x1="258.54910714285717" y1="0" x2="258.54910714285717" y2="5" style="visibility: inherit;" fill="rgb(0, 0, 0)" stroke="rgb(204, 204, 204)" stroke-width="1px"></line><line x1="278.4375" y1="0" x2="278.4375" y2="5" style="visibility: inherit;" fill="rgb(0, 0, 0)" stroke="rgb(204, 204, 204)" stroke-width="1px"></line></g><g transform="translate(0, 8)"><text x="0" y="0" dx="0em" dy="0.95em" style="text-anchor: middle; visibility: hidden; font-family: Roboto, sans-serif; font-size: 12px; font-weight: 200;" fill="rgb(33, 33, 33)" stroke="none" stroke-width="1px">-200</text><text x="19.888392857142858" y="0" dx="0em" dy="0.95em" style="text-anchor: middle; visibility: inherit; font-family: Roboto, sans-serif; font-size: 12px; font-weight: 200;" fill="rgb(33, 33, 33)" stroke="none" stroke-width="1px">0</text><text x="39.776785714285715" y="0" dx="0em" dy="0.95em" style="text-anchor: middle; visibility: hidden; font-family: Roboto, sans-serif; font-size: 12px; font-weight: 200;" fill="rgb(33, 33, 33)" stroke="none" stroke-width="1px">200</text><text x="59.66517857142857" y="0" dx="0em" dy="0.95em" style="text-anchor: middle; visibility: inherit; font-family: Roboto, sans-serif; font-size: 12px; font-weight: 200;" fill="rgb(33, 33, 33)" stroke="none" stroke-width="1px">400</text><text x="79.55357142857143" y="0" dx="0em" dy="0.95em" style="text-anchor: middle; visibility: hidden; font-family: Roboto, sans-serif; font-size: 12px; font-weight: 200;" fill="rgb(33, 33, 33)" stroke="none" stroke-width="1px">600</text><text x="99.44196428571429" y="0" dx="0em" dy="0.95em" style="text-anchor: middle; visibility: inherit; font-family: Roboto, sans-serif; font-size: 12px; font-weight: 200;" fill="rgb(33, 33, 33)" stroke="none" stroke-width="1px">800</text><text x="119.33035714285714" y="0" dx="0em" dy="0.95em" style="text-anchor: middle; visibility: hidden; font-family: Roboto, sans-serif; font-size: 12px; font-weight: 200;" fill="rgb(33, 33, 33)" stroke="none" stroke-width="1px">1k</text><text x="139.21875" y="0" dx="0em" dy="0.95em" style="text-anchor: middle; visibility: inherit; font-family: Roboto, sans-serif; font-size: 12px; font-weight: 200;" fill="rgb(33, 33, 33)" stroke="none" stroke-width="1px">1.2k</text><text x="159.10714285714286" y="0" dx="0em" dy="0.95em" style="text-anchor: middle; visibility: hidden; font-family: Roboto, sans-serif; font-size: 12px; font-weight: 200;" fill="rgb(33, 33, 33)" stroke="none" stroke-width="1px">1.4k</text><text x="178.99553571428572" y="0" dx="0em" dy="0.95em" style="text-anchor: middle; visibility: inherit; font-family: Roboto, sans-serif; font-size: 12px; font-weight: 200;" fill="rgb(33, 33, 33)" stroke="none" stroke-width="1px">1.6k</text><text x="198.88392857142858" y="0" dx="0em" dy="0.95em" style="text-anchor: middle; visibility: hidden; font-family: Roboto, sans-serif; font-size: 12px; font-weight: 200;" fill="rgb(33, 33, 33)" stroke="none" stroke-width="1px">1.8k</text><text x="218.77232142857142" y="0" dx="0em" dy="0.95em" style="text-anchor: middle; visibility: inherit; font-family: Roboto, sans-serif; font-size: 12px; font-weight: 200;" fill="rgb(33, 33, 33)" stroke="none" stroke-width="1px">2k</text><text x="238.66071428571428" y="0" dx="0em" dy="0.95em" style="text-anchor: middle; visibility: hidden; font-family: Roboto, sans-serif; font-size: 12px; font-weight: 200;" fill="rgb(33, 33, 33)" stroke="none" stroke-width="1px">2.2k</text><text x="258.54910714285717" y="0" dx="0em" dy="0.95em" style="text-anchor: middle; visibility: inherit; font-family: Roboto, sans-serif; font-size: 12px; font-weight: 200;" fill="rgb(33, 33, 33)" stroke="none" stroke-width="1px">2.4k</text><text x="278.4375" y="0" dx="0em" dy="0.95em" style="text-anchor: middle; visibility: hidden; font-family: Roboto, sans-serif; font-size: 12px; font-weight: 200;" fill="rgb(33, 33, 33)" stroke="none" stroke-width="1px">2.6k</text></g><line x1="0" y1="0" x2="278.4375" y2="0" fill="rgb(0, 0, 0)" stroke="rgb(204, 204, 204)" stroke-width="1px"></line></g></g></g></g></svg>