<svg viewBox="0 0 330 200" xmlns="http://www.w3.org/2000/svg"><g><g><g><g><g><line x1="20.390625" y1="146.07621511080671" x2="15.390625" y2="146.07621511080671" style="visibility: inherit;" fill="rgb(0, 0, 0)" stroke="rgb(204, 204, 204)" stroke-width="1px"></line></g><g transform="translate(10.390625, 0)"><text x="0" y="146.07621511080671" dx="0em" dy="0.3em" style="text-anchor: end; visibility: inherit; font-family: Roboto, sans-serif; font-size: 12px; font-weight: 200;" fill="rgb(33, 33, 33)" stroke="none" stroke-width="1px">2</text></g><line x1="20.390625" y1="0" x2="20.390625" y2="177" fill="rgb(0, 0, 0)" stroke="rgb(204, 204, 204)" stroke-width="1px"></line></g></g><g transform="translate(20, 0)" clip-path="url(#clip_0)"><clipPath id="clip_0"><rect width="309" height="177"></rect></clipPath><g><g><g><line x1="0" y1="0" x2="0" y2="177" fill="rgb(0, 0, 0)" stroke="rgb(66, 66, 66)" stroke-width="1px" opacity="0.25"></line><line x1="22.114955357142858" y1="0" x2="22.114955357142858" y2="177" fill="rgb(0, 0, 0)" stroke="rgb(66, 66, 66)" stroke-width="1px" opacity="0.25"></line><line x1="44.229910714285715" y1="0" x2="44.229910714285715" y2="177" fill="rgb(0, 0, 0)" stroke="rgb(66, 66, 66)" stroke-width="1px" opacity="0.25"></line><line x1="66.34486607142857" y1="0" x2="66.34486607142857" y2="177" fill="rgb(0, 0, 0)" stroke="rgb(66, 66, 66)" stroke-width="1px" opacity="0.25"></line><line x1="88.45982142857143" y1="0" x2="88.45982142857143" y2="177" fill="rgb(0, 0, 0)" stroke="rgb(66, 66, 66)" stroke-width="1px" opacity="0.25"></line><line x1="110.57477678571429" y1="0" x2="110.57477678571429" y2="177" fill="rgb(0, 0, 0)" stroke="rgb(66, 66, 66)" stroke-width="1px" opacity="0.25"></line><line x1="132.68973214285714" y1="0" x2="132.68973214285714" y2="177" fill="rgb(0, 0, 0)" stroke="rgb(66, 66, 66)" stroke-width="1px" opacity="0.25"></line><line x1="154.8046875" y1="0" x2="154.8046875" y2="177" fill="rgb(0, 0, 0)" stroke="rgb(66, 66, 66)" stroke-width="1px" opacity="0.25"></line><line x1="176.91964285714286" y1="0" x2="176.91964285714286" y2="177" fill="rgb(0, 0, 0)" stroke="rgb(66, 66, 66)" stroke-width="1px" opacity="0.25"></line><line x1="199.03459821428572" y1="0" x2="199.03459821428572" y2="177" fill="rgb(0, 0, 0)" stroke="rgb(66, 66, 66)" stroke-width="1px" opacity="0.25"></line><line x1="221.14955357142858" y1="0" x2="221.14955357142858" y2="177" fill="rgb(0, 0, 0)" stroke="rgb(66, 66, 66)" stroke-width="1px" opacity="0.25"></line><line x1="243.26450892857142" y1="0" x2="243.26450892857142" y2="177" fill="rgb(0, 0, 0)" stroke="rgb(66, 66, 66)" stroke-width="1px" opacity="0.25"></line><line x1="265.3794642857143" y1="0" x2="265.3794642857143" y2="177" fill="rgb(0, 0, 0)" stroke="rgb(66, 66, 66)" stroke-width="1px" opacity="0.25"></line><line x1="287.49441964285717" y1="0" x2="287.49441964285717" y2="177" fill="rgb(0, 0, 0)" stroke="rgb(66, 66, 66)" stroke-width="1px" opacity="0.25"></line><line x1="309.609375" y1="0" x2="309.609375" y2="177" fill="rgb(0, 0, 0)" stroke="rgb(66, 66, 66)" stroke-width="1px" opacity="0.25"></line></g><g><line x1="0" y1="146.07621511080671" x2="309.609375" y2="146.07621511080671" fill="rgb(0, 0, 0)" stroke="rgb(66, 66, 66)" stroke-width="1px" opacity="0.25"></line></g></g></g><g><g><line x1="22.114955357142858" y1="0" x2="22.114955357142858" y2="177" fill="rgb(0, 0, 0)" stroke="rgb(153, 153, 153)" stroke-width="1.5px"></line></g></g><g><g><g><g><g><path stroke="rgb(255, 112, 67)" stroke-width="2px" d="M34.27818080357143,-5.51233569892372L35.38392857142857,11.148832737457305L36.489676339285715,22.80912623467747L37.595424107142854,28.497010721236926L38.701171875,25.285714285714235L39.80691964285714,29.142236899317894L40.912667410714285,44.032556044349604L42.01841517857142,52.077303249693635L43.12416294642857,62.77765825174722L44.229910714285715,78.85187446018409L45.33565848214286,79.4046841907598L46.44140625,65.88434692953736L47.547154017857146,81.49917719758162L48.652901785714285,69.58684522337037L49.75864955357143,78.11036119182182L50.86439732142857,56.090452078655204L51.97014508928571,63.85153959749753L53.075892857142854,56.3573612352045L54.181640625,66.77083672368282L55.287388392857146,64.72913455203799L56.393136160714285,67.6740082710153L57.49888392857143,60.07115419258809L58.60463169642857,68.73942252205497L59.710379464285715,76.9427405890131L60.816127232142854,83.0516361929796L61.921875,79.72479413757567L63.027622767857146,80.93598163273475L64.13337053571429,77.80536487957114L65.23911830357143,72.79643332471647L66.34486607142857,78.56087490026155L67.45061383928571,88.08621071608626L68.55636160714286,99.23943909791427L69.662109375,109.72792432766093L70.76785714285714,118.28759819509551L71.87360491071429,110.7341338665586L72.97935267857143,96.3580571378996L74.08510044642857,93.64633068925104L75.19084821428571,92.6429104490903L76.29659598214286,88.35031433376149L77.40234375,87.44618461437182L78.50809151785714,87.88923706996943L79.61383928571428,88.41715033048709L80.71958705357143,71.22253310041667L81.82533482142857,75.71042159716868L82.93108258928571,77.12177749909384L84.03683035714285,83.8032479658476L85.142578125,93.97477150209232L86.24832589285714,107.75438247372907L87.35407366071429,111.3824669446705L88.45982142857143,98.39199930638011L89.56556919642858,109.78200692961524L90.67131696428572,101.44450226432484L91.77706473214286,106.18730691399519L92.8828125,95.08652905248735L93.98856026785714,80.01759982572554L95.09430803571429,91.50299927735239L96.20005580357143,104.43655883414208L97.30580357142857,119.2402607047906L98.41155133928571,110.60356983418147L99.51729910714286,116.3757243083176L100.623046875,139.70543910581927L101.72879464285714,116.94698133929539L102.83454241071428,121.2442753267459L103.94029017857142,122.9813073257679L105.04603794642857,116.21067522442668L106.15178571428571,130.1483495328892L107.25753348214286,140.3957645448449L108.36328125,124.35399182317391L109.46902901785715,114.4149828239717L110.57477678571429,102.15373327189543L111.68052455357143,97.41900232566061L112.78627232142857,99.6683015450321L113.89202008928572,101.08342979968896L114.99776785714286,112.05230616826192L116.103515625,112.74689662833757L117.20926339285714,114.22854208346693L118.31501116071428,114.41875254820705L119.42075892857143,118.4230382861478L120.52650669642857,126.59281719777127L121.63225446428571,132.63854597433374L122.73800223214285,123.77573724872067L123.84375,126.29136227461211L124.94949776785714,131.2543651624339L126.05524553571429,132.37535396764574L127.16099330357143,114.64663054529888L128.26674107142858,128.49770940225608L129.37248883928572,135.81064165288868L130.47823660714286,133.7737505378274L131.583984375,139.47565019255566L132.68973214285714,131.68333538777657L133.79547991071428,116.85187873413604L134.90122767857142,121.1227694188834L136.00697544642858,115.15188997583732L137.11272321428572,124.48029923129386L138.21847098214286,133.4252611031147L139.32421875,139.2978751517632L140.42996651785714,131.04201915950037L141.53571428571428,125.49895603595529L142.64146205357142,124.4253882722297L143.74720982142858,124.52215524951843L144.85295758928572,122.84323200859119L145.95870535714286,129.36563678618927L147.064453125,137.64343811721287L148.17020089285714,143.42404121796312L149.27594866071428,129.65866688451393L150.38169642857142,129.82686225991608L151.48744419642856,137.661167263317L152.59319196428572,137.70593803602995L153.69893973214286,116.48049542725414L154.8046875,103.02901929586187L155.91043526785714,109.68507844589797L157.01618303571428,114.69033309005059L158.12193080357142,112.20192093479724L159.22767857142856,120.20285412647087L160.33342633928572,114.09491324520351L161.43917410714286,118.85112211513406L162.544921875,120.35535889574234L163.65066964285714,134.54687651482678L164.75641741071428,128.62086035602002L165.86216517857142,109.68369390576814L166.96791294642856,111.13361908721727L168.0736607142857,114.03700288795139L169.17940848214283,102.00862521073678L170.28515625,116.86260197906883L171.39090401785714,114.64525110886493L172.49665178571428,116.59596174585737L173.60239955357142,128.81217930962328L174.70814732142858,131.06943257882295L175.81389508928572,129.95985306084543L176.91964285714286,131.2726448356816L178.025390625,131.31430126645023L179.13113839285717,121.849258029907L180.2368861607143,149.90746225868855L181.34263392857144,131.5601025245769L182.44838169642858,141.81185286070058L183.55412946428572,148.1239057059224L184.65987723214286,124.27709145559858L185.765625,130.6702579753134L186.87137276785714,120.5694375618899L187.97712053571428,99.31204157375653L189.08286830357144,103.97278173793968L190.18861607142858,111.18989224528679L191.29436383928572,114.15036737923124L192.40011160714286,133.92302676181137L193.505859375,133.22893606548965L194.61160714285714,110.67117395922284L195.71735491071428,98.04975541481784L196.82310267857142,111.18804786504059L197.92885044642856,135.25938166955254L199.03459821428572,152.6071709250343L200.14034598214286,137.74364383174935L201.24609375,123.0332865876738L202.35184151785714,137.9293764899606L203.45758928571428,118.01557716851761L204.56333705357142,134.22482269230875L205.66908482142856,134.43569833402015L206.7748325892857,135.18175529609678L207.88058035714283,105.90274763142267L208.986328125,126.40473556986767L210.09207589285714,127.09701876595166L211.19782366071428,134.00109699378424L212.30357142857142,137.5333177155379L213.40931919642858,131.0961000390149L214.51506696428572,118.03776211362799L215.62081473214286,122.78508211071411L216.7265625,117.65707453629196L217.83231026785717,121.6885073650124L218.9380580357143,128.86129650199342L220.04380580357144,134.3998456850634L221.14955357142858,151.7142857142855L222.25530133928572,158.8323909849986L223.36104910714286,160.85864803050507L224.466796875,151.53026605351712L225.57254464285714,131.99198992347792L226.67829241071428,130.07478118094457L227.78404017857144,127.01892538566898L228.88978794642858,137.52777469220496L229.99553571428572,142.03757336248802L231.10128348214286,143.9308129525416L232.20703125,138.29678575398458L233.31277901785714,156.22163456787575L234.41852678571428,133.87436823973695L235.52427455357142,134.25793894177914L236.63002232142856,133.96689684654058L237.73577008928572,130.47768047143697L238.84151785714286,126.82376715958424L239.947265625,122.22743652534778L241.05301339285714,128.52387997614204L242.15876116071428,120.22497462475555L243.26450892857142,127.5711350749711L244.37025669642856,148.1860238439538L245.4760044642857,141.53626890784656L246.58175223214283,130.195980390889L247.6875,127.76992166273693L248.79324776785714,138.0822432938313L249.89899553571428,156.00643872242748L251.00474330357142,136.58627635744543L252.11049107142858,146.1000295110861L253.21623883928572,147.9930654613675L254.32198660714286,144.56590912112515L255.427734375,144.95512672901913L256.53348214285717,146.31199062253728L257.6392299107143,159.69780154564532L258.74497767857144,159.36147945082453L259.85072544642856,158.11953055319316L260.9564732142857,141.59552699482182L262.06222098214283,130.7823770616743L263.16796875,157.1810755601906L264.2737165178571,126.47292570674685L265.3794642857143,131.44515686485713L266.48521205357144,125.8520653158925L267.59095982142856,147.9061072934131L268.6967075892857,137.61555693231142L269.80245535714283,130.59349066017373L270.908203125,125.26384105157587L272.01395089285717,123.04614732767183L273.1196986607143,120.06744697528504L274.22544642857144,132.841069694913L275.33119419642856,144.96273367865194L276.4369419642857,122.73804019339735L277.5426897321429,133.4089210654993L278.6484375,131.21477783850912L279.75418526785717,133.13206937298713L280.8599330357143,136.42138977796677L281.96568080357144,133.40659802515802L283.07142857142856,132.25274621556264L284.1771763392857,150.26520030541445L285.28292410714283,155.96259185511394L286.388671875,157.53803124685047L287.49441964285717,159.8446166276919L288.6001674107143,158.00647795262716L289.70591517857144,142.5485858864804L290.81166294642856,121.02249700400398L291.9174107142857,127.40736532527386L293.02315848214283,127.34350289775533L294.12890625,114.22793393620186L295.23465401785717,128.598077504942L296.3404017857143,126.28105043138554" style="fill: none;" fill="none"></path></g></g></g></g><g opacity="0.2"><g><g><g><path stroke="rgb(255, 112, 67)" stroke-width="2px" d="M30.9609375,-5.905702741492125L32.066685267857146,4.400728682075517L33.172433035714285,-9.814684023643803L34.27818080357143,10.829228060304814L35.38392857142857,36.69352374827298L36.489676339285715,40.57486199410952L37.595424107142854,37.09163708339696L38.701171875,20.49579699419624L39.80691964285714,34.958238007953554L40.912667410714285,66.87707780988652L42.01841517857142,64.29114174258991L43.12416294642857,79.09092408803L44.229910714285715,103.56367880611757L45.33565848214286,80.23456255219787L46.44140625,46.010265528490436L47.547154017857146,105.48875855521385L48.652901785714285,52.03444847958145L49.75864955357143,91.06274355175412L50.86439732142857,24.12339155101923L51.97014508928571,75.63157855816789L53.075892857142854,45.24203564167815L54.181640625,82.64134094085229L55.287388392857146,61.67601117590628L56.393136160714285,72.11109215943597L57.49888392857143,48.7964616206738L58.60463169642857,81.91476152331941L59.710379464285715,89.40248198423248L60.816127232142854,92.30051164086548L61.921875,74.7595137653813L63.027622767857146,82.75609842942546L64.13337053571429,73.13156920694837L65.23911830357143,65.33951599419373L66.34486607142857,87.28365308404462L67.45061383928571,102.5833349743295L68.55636160714286,116.25675768107695L69.662109375,125.71460325663286L70.76785714285714,131.29571058637654L71.87360491071429,99.53185630217259L72.97935267857143,75.25233829503051L74.08510044642857,89.59535577601083L75.19084821428571,91.14006127633694L76.29659598214286,81.95294824544091L77.40234375,86.09184239876117L78.50809151785714,88.55426153148142L79.61383928571428,89.20965320583248L80.71958705357143,46.08348001379568L81.82533482142857,82.48829494644389L82.93108258928571,79.24334201114237L84.03683035714285,93.92786669882386L85.142578125,109.47076639546246L86.24832589285714,128.86451693644392L87.35407366071429,116.85464087148415L88.45982142857143,79.28140546277581L89.56556919642858,127.16694713961405L90.67131696428572,89.09390399168585L91.77706473214286,113.35295468019633L92.8828125,78.71009302950772L93.98856026785714,57.91730441105948L95.09430803571429,109.03612012072513L96.20005580357143,124.22461463328202L97.30580357142857,141.95533886891434L98.41155133928571,97.81548480813517L99.51729910714286,125.11027664448196L100.623046875,175.9836714519515L101.72879464285714,83.94319504572394L102.83454241071428,127.73241629352053L103.94029017857142,125.59372178422215L105.04603794642857,106.15763338079603L106.15178571428571,151.50586599087183L107.25753348214286,156.00920232221517L108.36328125,100.8606194139712L109.46902901785715,99.72710950004227L110.57477678571429,84.09641942155312L111.68052455357143,90.36739357031949L112.78627232142857,103.05377354835608L113.89202008928572,103.21067712061911L114.99776785714286,128.78358736268288L116.103515625,113.78987839923698L117.20926339285714,116.45600401035118L118.31501116071428,114.70415037496406L119.42075892857143,124.46609085044878L120.52650669642857,139.00097909587225L121.63225446428571,141.7909031197169L122.73800223214285,110.65726873448274L123.84375,130.0792195391021L124.94949776785714,138.75521794996843L126.05524553571429,134.05969402161153L127.16099330357143,88.74702928810886L128.26674107142858,149.71968189099113L129.37248883928572,146.90285261545594L130.47823660714286,130.72779831287252L131.583984375,148.10296522013195L132.68973214285714,120.13094824952266L133.79547991071428,95.09224192634974L134.90122767857142,127.57078666604835L136.00697544642858,106.27570425939287L137.11272321428572,138.67341142628229L138.21847098214286,147.02694179118768L139.32421875,148.18580951720506L140.42996651785714,118.81087990441529L141.53571428571428,117.25347015741619L142.64146205357142,122.81764761609405L143.74720982142858,124.66732696843891L144.85295758928572,120.33122661936713L145.95870535714286,139.2468133644707L147.064453125,150.21774744049645L148.17020089285714,152.1714911320018L149.27594866071428,109.43128647625117L150.38169642857142,130.0792195391021L151.48744419642856,149.55369376887768L152.59319196428572,137.7730987441246L153.69893973214286,85.63096042470407L154.8046875,83.25371728443129L155.91043526785714,119.77079845755395L157.01618303571428,122.255530969842L158.12193080357142,108.48329866070506L159.22767857142856,132.35142772370293L160.33342633928572,105.01683818976215L161.43917410714286,126.03716851828592L162.544921875,122.61686144381405L163.65066964285714,156.30193258937229L164.75641741071428,119.81077554521201L165.86216517857142,82.06770130740999L166.96791294642856,113.31328882662132L168.0736607142857,118.41129831888284L169.17940848214283,84.2881498051776L170.28515625,139.65660202602947L171.39090401785714,111.33034252978855L172.49665178571428,119.53069040083444L173.60239955357142,147.4819962851024L174.70814732142858,134.4669174478953L175.81389508928572,128.2982727155259L176.91964285714286,133.24575181806063L178.025390625,131.37678985074288L179.13113839285717,107.85194186018826L180.2368861607143,193.8664836374104L181.34263392857144,104.78107274164923L182.44838169642858,157.43200042919523L183.55412946428572,157.68333110517133L184.65987723214286,89.74972403478282L185.765625,140.3537290968256L186.87137276785714,105.64603147074095L187.97712053571428,68.41750624987222L189.08286830357144,111.01356138366671L190.18861607142858,122.13515447896924L191.29436383928572,118.61106495606863L192.40011160714286,164.49857209400312L193.505859375,132.18889207506405L194.61160714285714,77.948866411018L195.71735491071428,79.4719307615039L196.82310267857142,131.29571058637654L197.92885044642856,172.73466700780315L199.03459821428572,179.33152905084486L200.14034598214286,115.9379874873088L201.24609375,101.44746083008795L202.35184151785714,160.7894955258696L203.45758928571428,89.01686941980495L204.56333705357142,159.15099409519684L205.66908482142856,134.75211274476058L206.7748325892857,136.30210537372997L207.88058035714283,63.842258125592814L208.986328125,158.144344310718L210.09207589285714,128.13653236705963L211.19782366071428,144.4666050927838L212.30357142857142,142.86012470313196L213.40931919642858,121.5333437297364L214.51506696428572,98.82925217938573L215.62081473214286,129.95760127125317L216.7265625,110.02424917199285L217.83231026785717,127.77278047277446L218.9380580357143,139.7386037016424L220.04380580357144,142.77791075653718L221.14955357142858,178.3858819833573L222.25530133928572,169.62586774277597L223.36104910714286,163.9073814065106L224.466796875,137.73224306134452L225.57254464285714,103.52448013161023L226.67829241071428,127.20728370268958L227.78404017857144,122.45622934248567L228.88978794642858,153.54599537928254L229.99553571428572,148.8487642744221L231.10128348214286,146.77883136274994L232.20703125,129.91713021797062L233.31277901785714,183.8598310786171L234.41852678571428,101.44746083008795L235.52427455357142,134.83362908031205L236.63002232142856,133.53052583825146L237.73577008928572,125.27132956568518L238.84151785714286,121.37301771516431L239.947265625,115.38053031236772L241.05301339285714,138.0594377354667L242.15876116071428,107.93084683804409L243.26450892857142,138.71431367565472L244.37025669642856,180.10606945444323L245.4760044642857,131.6609203229341L246.58175223214283,113.47215303552134L247.6875,124.1441382414774L248.79324776785714,153.79614657618063L249.89899553571428,183.6435995915056L251.00474330357142,108.28596547276577L252.11049107142858,160.57926755725907L253.21623883928572,150.84077665412718L254.32198660714286,139.45168228982752L255.427734375,145.53929713864943L256.53348214285717,148.35147365199518L257.6392299107143,180.19213441793696L258.74497767857144,158.85725285915967L259.85072544642856,156.26010050688876L260.9564732142857,117.41309384697037L262.06222098214283,114.82344899789958L263.16796875,198.43130085709095L264.2737165178571,82.45008347435034L265.3794642857143,138.96006265319178L266.48521205357144,117.53278427990494L267.59095982142856,182.13181883252716L268.6967075892857,122.41612405342309L269.80245535714283,120.17103822175113L270.908203125,117.33327814739867L272.01395089285717,119.7307279002993L273.1196986607143,115.61943516128221L274.22544642857144,152.37959039767205L275.33119419642856,163.48533962497532L276.4369419642857,90.48322925506963L277.5426897321429,149.6781817341215L278.6484375,127.93444962335943L279.75418526785717,136.01637464912972L280.8599330357143,141.38005480133702L281.96568080357144,128.90493646165365L283.07142857142856,130.5249842149376L284.1771763392857,178.0422738352872L285.28292410714283,164.5830264750586L286.388671875,159.90683719465312L287.49441964285717,163.31661342762274L288.6001674107143,155.2569147801203L289.70591517857144,119.89083094608789L290.81166294642856,89.74972403478282L291.9174107142857,137.07814474275716L293.02315848214283,127.24771851078445L294.12890625,94.93687236681099L295.23465401785717,150.63306455176524L296.3404017857143,122.81764761609405" style="fill: none;" fill="none"></path></g></g></g></g></g></g><g transform="translate(20, 177)" clip-path="url(#clip_1)"><clipPath id="clip_1"><rect width="309" height="23"></rect></clipPath><g><g><line x1="0" y1="0" x2="0" y2="5" style="visibility: inherit;" fill="rgb(0, 0, 0)" stroke="rgb(204, 204, 204)" stroke-width="1px"></line><line x1="22.114955357142858" y1="0" x2="22.114955357142858" y2="5" style="visibility: inherit;" fill="rgb(0, 0, 0)" stroke="rgb(204, 204, 204)" stroke-width="1px"></line><line x1="44.229910714285715" y1="0" x2="44.229910714285715" y2="5" style="visibility: inherit;" fill="rgb(0, 0, 0)" stroke="rgb(204, 204, 204)" stroke-width="1px"></line><line x1="66.34486607142857" y1="0" x2="66.34486607142857" y2="5" style="visibility: inherit;" fill="rgb(0, 0, 0)" stroke="rgb(204, 204, 204)" stroke-width="1px"></line><line x1="88.45982142857143" y1="0" x2="88.45982142857143" y2="5" style="visibility: inherit;" fill="rgb(0, 0, 0)" stroke="rgb(204, 204, 204)" stroke-width="1px"></line><line x1="110.57477678571429" y1="0" x2="110.57477678571429" y2="5" style="visibility: inherit;" fill="rgb(0, 0, 0)" stroke="rgb(204, 204, 204)" stroke-width="1px"></line><line x1="132.68973214285714" y1="0" x2="132.68973214285714" y2="5" style="visibility: inherit;" fill="rgb(0, 0, 0)" stroke="rgb(204, 204, 204)" stroke-width="1px"></line><line x1="154.8046875" y1="0" x2="154.8046875" y2="5" style="visibility: inherit;" fill="rgb(0, 0, 0)" stroke="rgb(204, 204, 204)" stroke-width="1px"></line><line x1="176.91964285714286" y1="0" x2="176.91964285714286" y2="5" style="visibility: inherit;" fill="rgb(0, 0, 0)" stroke="rgb(204, 204, 204)" stroke-width="1px"></line><line x1="199.03459821428572" y1="0" x2="199.03459821428572" y2="5" style="visibility: inherit;" fill="rgb(0, 0, 0)" stroke="rgb(204, 204, 204)" stroke-width="1px"></line><line x1="221.14955357142858" y1="0" x2="221.14955357142858" y2="5" style="visibility: inherit;" fill="rgb(0, 0, 0)" stroke="rgb(204, 204, 204)" stroke-width="1px"></line><line x1="243.26450892857142" y1="0" x2="243.26450892857142" y2="5" style="visibility: inherit;" fill="rgb(0, 0, 0)" stroke="rgb(204, 204, 204)" stroke-width="1px"></line><line x1="265.3794642857143" y1="0" x2="265.3794642857143" y2="5" style="visibility: inherit;" fill="rgb(0, 0, 0)" stroke="rgb(204, 204, 204)" stroke-width="1px"></line><line x1="287.49441964285717" y1="0" x2="287.49441964285717" y2="5" style="visibility: inherit;" fill="rgb(0, 0, 0)" stroke="rgb(204, 204, 204)" stroke-width="1px"></line><line x1="309.609375" y1="0" x2="309.609375" y2="5" style="visibility: inherit;" fill="rgb(0, 0, 0)" stroke="rgb(204, 204, 204)" stroke-width="1px"></line></g><g transform="translate(0, 8)"><text x="0" y="0" dx="0em" dy="0.95em" style="text-anchor: middle; visibility: hidden; font-family: Roboto, sans-serif; font-size: 12px; font-weight: 200;" fill="rgb(33, 33, 33)" stroke="none" stroke-width="1px">-200</text><text x="22.114955357142858" y="0" dx="0em" dy="0.95em" style="text-anchor: middle; visibility: inherit; font-family: Roboto, sans-serif; font-size: 12px; font-weight: 200;" fill="rgb(33, 33, 33)" stroke="none" stroke-width="1px">0</text><text x="44.229910714285715" y="0" dx="0em" dy="0.95em" style="text-anchor: middle; visibility: hidden; font-family: Roboto, sans-serif; font-size: 12px; font-weight: 200;" fill="rgb(33, 33, 33)" stroke="none" stroke-width="1px">200</text><text x="66.34486607142857" y="0" dx="0em" dy="0.95em" style="text-anchor: middle; visibility: inherit; font-family: Roboto, sans-serif; font-size: 12px; font-weight: 200;" fill="rgb(33, 33, 33)" stroke="none" stroke-width="1px">400</text><text x="88.45982142857143" y="0" dx="0em" dy="0.95em" style="text-anchor: middle; visibility: hidden; font-family: Roboto, sans-serif; font-size: 12px; font-weight: 200;" fill="rgb(33, 33, 33)" stroke="none" stroke-width="1px">600</text><text x="110.57477678571429" y="0" dx="0em" dy="0.95em" style="text-anchor: middle; visibility: inherit; font-family: Roboto, sans-serif; font-size: 12px; font-weight: 200;" fill="rgb(33, 33, 33)" stroke="none" stroke-width="1px">800</text><text x="132.68973214285714" y="0" dx="0em" dy="0.95em" style="text-anchor: middle; visibility: hidden; font-family: Roboto, sans-serif; font-size: 12px; font-weight: 200;" fill="rgb(33, 33, 33)" stroke="none" stroke-width="1px">1k</text><text x="154.8046875" y="0" dx="0em" dy="0.95em" style="text-anchor: middle; visibility: inherit; font-family: Roboto, sans-serif; font-size: 12px; font-weight: 200;" fill="rgb(33, 33, 33)" stroke="none" stroke-width="1px">1.2k</text><text x="176.91964285714286" y="0" dx="0em" dy="0.95em" style="text-anchor: middle; visibility: hidden; font-family: Roboto, sans-serif; font-size: 12px; font-weight: 200;" fill="rgb(33, 33, 33)" stroke="none" stroke-width="1px">1.4k</text><text x="199.03459821428572" y="0" dx="0em" dy="0.95em" style="text-anchor: middle; visibility: inherit; font-family: Roboto, sans-serif; font-size: 12px; font-weight: 200;" fill="rgb(33, 33, 33)" stroke="none" stroke-width="1px">1.6k</text><text x="221.14955357142858" y="0" dx="0em" dy="0.95em" style="text-anchor: middle; visibility: hidden; font-family: Roboto, sans-serif; font-size: 12px; font-weight: 200;" fill="rgb(33, 33, 33)" stroke="none" stroke-width="1px">1.8k</text><text x="243.26450892857142" y="0" dx="0em" dy="0.95em" style="text-anchor: middle; visibility: inherit; font-family: Roboto, sans-serif; font-size: 12px; font-weight: 200;" fill="rgb(33, 33, 33)" stroke="none" stroke-width="1px">2k</text><text x="265.3794642857143" y="0" dx="0em" dy="0.95em" style="text-anchor: middle; visibility: hidden; font-family: Roboto, sans-serif; font-size: 12px; font-weight: 200;" fill="rgb(33, 33, 33)" stroke="none" stroke-width="1px">2.2k</text><text x="287.49441964285717" y="0" dx="0em" dy="0.95em" style="text-anchor: middle; visibility: inherit; font-family: Roboto, sans-serif; font-size: 12px; font-weight: 200;" fill="rgb(33, 33, 33)" stroke="none" stroke-width="1px">2.4k</text><text x="309.609375" y="0" dx="0em" dy="0.95em" style="text-anchor: middle; visibility: hidden; font-family: Roboto, sans-serif; font-size: 12px; font-weight: 200;" fill="rgb(33, 33, 33)" stroke="none" stroke-width="1px">2.6k</text></g><line x1="0" y1="0" x2="309.609375" y2="0" fill="rgb(0, 0, 0)" stroke="rgb(204, 204, 204)" stroke-width="1px"></line></g></g></g></g></svg>