<svg viewBox="0 0 330 200" xmlns="http://www.w3.org/2000/svg"><g><g><g><g><g><line x1="51.5625" y1="170.78805254267854" x2="46.5625" y2="170.78805254267854" style="visibility: inherit;" fill="rgb(0, 0, 0)" stroke="rgb(204, 204, 204)" stroke-width="1px"></line><line x1="51.5625" y1="164.27022410953614" x2="46.5625" y2="164.27022410953614" style="visibility: inherit;" fill="rgb(0, 0, 0)" stroke="rgb(204, 204, 204)" stroke-width="1px"></line><line x1="51.5625" y1="158.62422430894804" x2="46.5625" y2="158.62422430894804" style="visibility: inherit;" fill="rgb(0, 0, 0)" stroke="rgb(204, 204, 204)" stroke-width="1px"></line><line x1="51.5625" y1="153.64409954009662" x2="46.5625" y2="153.64409954009662" style="visibility: inherit;" fill="rgb(0, 0, 0)" stroke="rgb(204, 204, 204)" stroke-width="1px"></line><line x1="51.5625" y1="149.18922613016633" x2="46.5625" y2="149.18922613016633" style="visibility: inherit;" fill="rgb(0, 0, 0)" stroke="rgb(204, 204, 204)" stroke-width="1px"></line><line x1="51.5625" y1="119.88144489385382" x2="46.5625" y2="119.88144489385382" style="visibility: inherit;" fill="rgb(0, 0, 0)" stroke="rgb(204, 204, 204)" stroke-width="1px"></line><line x1="51.5625" y1="102.73749189127192" x2="46.5625" y2="102.73749189127192" style="visibility: inherit;" fill="rgb(0, 0, 0)" stroke="rgb(204, 204, 204)" stroke-width="1px"></line><line x1="51.5625" y1="90.57366365754133" x2="46.5625" y2="90.57366365754133" style="visibility: inherit;" fill="rgb(0, 0, 0)" stroke="rgb(204, 204, 204)" stroke-width="1px"></line><line x1="51.5625" y1="81.1386654787597" x2="46.5625" y2="81.1386654787597" style="visibility: inherit;" fill="rgb(0, 0, 0)" stroke="rgb(204, 204, 204)" stroke-width="1px"></line><line x1="51.5625" y1="73.42971065495942" x2="46.5625" y2="73.42971065495942" style="visibility: inherit;" fill="rgb(0, 0, 0)" stroke="rgb(204, 204, 204)" stroke-width="1px"></line><line x1="51.5625" y1="66.91188222181695" x2="46.5625" y2="66.91188222181695" style="visibility: inherit;" fill="rgb(0, 0, 0)" stroke="rgb(204, 204, 204)" stroke-width="1px"></line><line x1="51.5625" y1="61.265882421228824" x2="46.5625" y2="61.265882421228824" style="visibility: inherit;" fill="rgb(0, 0, 0)" stroke="rgb(204, 204, 204)" stroke-width="1px"></line><line x1="51.5625" y1="56.28575765237751" x2="46.5625" y2="56.28575765237751" style="visibility: inherit;" fill="rgb(0, 0, 0)" stroke="rgb(204, 204, 204)" stroke-width="1px"></line><line x1="51.5625" y1="51.830884242447205" x2="46.5625" y2="51.830884242447205" style="visibility: inherit;" fill="rgb(0, 0, 0)" stroke="rgb(204, 204, 204)" stroke-width="1px"></line><line x1="51.5625" y1="22.523103006134694" x2="46.5625" y2="22.523103006134694" style="visibility: inherit;" fill="rgb(0, 0, 0)" stroke="rgb(204, 204, 204)" stroke-width="1px"></line><line x1="51.5625" y1="5.379150003552721" x2="46.5625" y2="5.379150003552721" style="visibility: inherit;" fill="rgb(0, 0, 0)" stroke="rgb(204, 204, 204)" stroke-width="1px"></line></g><g transform="translate(41.5625, 0)"><text x="0" y="170.78805254267854" dx="0em" dy="0.3em" style="text-anchor: end; visibility: inherit; font-family: Roboto, sans-serif; font-size: 12px; font-weight: 200;" fill="rgb(33, 33, 33)" stroke="none" stroke-width="1px">6e-7</text><text x="0" y="164.27022410953614" dx="0em" dy="0.3em" style="text-anchor: end; visibility: hidden; font-family: Roboto, sans-serif; font-size: 12px; font-weight: 200;" fill="rgb(33, 33, 33)" stroke="none" stroke-width="1px">7e-7</text><text x="0" y="158.62422430894804" dx="0em" dy="0.3em" style="text-anchor: end; visibility: hidden; font-family: Roboto, sans-serif; font-size: 12px; font-weight: 200;" fill="rgb(33, 33, 33)" stroke="none" stroke-width="1px">8e-7</text><text x="0" y="153.64409954009662" dx="0em" dy="0.3em" style="text-anchor: end; visibility: hidden; font-family: Roboto, sans-serif; font-size: 12px; font-weight: 200;" fill="rgb(33, 33, 33)" stroke="none" stroke-width="1px">9e-7</text><text x="0" y="149.18922613016633" dx="0em" dy="0.3em" style="text-anchor: end; visibility: hidden; font-family: Roboto, sans-serif; font-size: 12px; font-weight: 200;" fill="rgb(33, 33, 33)" stroke="none" stroke-width="1px">1e-6</text><text x="0" y="119.88144489385382" dx="0em" dy="0.3em" style="text-anchor: end; visibility: inherit; font-family: Roboto, sans-serif; font-size: 12px; font-weight: 200;" fill="rgb(33, 33, 33)" stroke="none" stroke-width="1px">2e-6</text><text x="0" y="102.73749189127192" dx="0em" dy="0.3em" style="text-anchor: end; visibility: hidden; font-family: Roboto, sans-serif; font-size: 12px; font-weight: 200;" fill="rgb(33, 33, 33)" stroke="none" stroke-width="1px">3e-6</text><text x="0" y="90.57366365754133" dx="0em" dy="0.3em" style="text-anchor: end; visibility: hidden; font-family: Roboto, sans-serif; font-size: 12px; font-weight: 200;" fill="rgb(33, 33, 33)" stroke="none" stroke-width="1px">4e-6</text><text x="0" y="81.1386654787597" dx="0em" dy="0.3em" style="text-anchor: end; visibility: hidden; font-family: Roboto, sans-serif; font-size: 12px; font-weight: 200;" fill="rgb(33, 33, 33)" stroke="none" stroke-width="1px">5e-6</text><text x="0" y="73.42971065495942" dx="0em" dy="0.3em" style="text-anchor: end; visibility: hidden; font-family: Roboto, sans-serif; font-size: 12px; font-weight: 200;" fill="rgb(33, 33, 33)" stroke="none" stroke-width="1px">6e-6</text><text x="0" y="66.91188222181695" dx="0em" dy="0.3em" style="text-anchor: end; visibility: inherit; font-family: Roboto, sans-serif; font-size: 12px; font-weight: 200;" fill="rgb(33, 33, 33)" stroke="none" stroke-width="1px">7e-6</text><text x="0" y="61.265882421228824" dx="0em" dy="0.3em" style="text-anchor: end; visibility: hidden; font-family: Roboto, sans-serif; font-size: 12px; font-weight: 200;" fill="rgb(33, 33, 33)" stroke="none" stroke-width="1px">8e-6</text><text x="0" y="56.28575765237751" dx="0em" dy="0.3em" style="text-anchor: end; visibility: hidden; font-family: Roboto, sans-serif; font-size: 12px; font-weight: 200;" fill="rgb(33, 33, 33)" stroke="none" stroke-width="1px">9e-6</text><text x="0" y="51.830884242447205" dx="0em" dy="0.3em" style="text-anchor: end; visibility: hidden; font-family: Roboto, sans-serif; font-size: 12px; font-weight: 200;" fill="rgb(33, 33, 33)" stroke="none" stroke-width="1px">1e-5</text><text x="0" y="22.523103006134694" dx="0em" dy="0.3em" style="text-anchor: end; visibility: hidden; font-family: Roboto, sans-serif; font-size: 12px; font-weight: 200;" fill="rgb(33, 33, 33)" stroke="none" stroke-width="1px">2e-5</text><text x="0" y="5.379150003552721" dx="0em" dy="0.3em" style="text-anchor: end; visibility: hidden; font-family: Roboto, sans-serif; font-size: 12px; font-weight: 200;" fill="rgb(33, 33, 33)" stroke="none" stroke-width="1px">3e-5</text></g><line x1="51.5625" y1="0" x2="51.5625" y2="177" fill="rgb(0, 0, 0)" stroke="rgb(204, 204, 204)" stroke-width="1px"></line></g></g><g transform="translate(51, 0)" clip-path="url(#clip_0)"><clipPath id="clip_0"><rect width="278" height="177"></rect></clipPath><g><g><g><line x1="0" y1="0" x2="0" y2="177" fill="rgb(0, 0, 0)" stroke="rgb(66, 66, 66)" stroke-width="1px" opacity="0.25"></line><line x1="19.888392857142858" y1="0" x2="19.888392857142858" y2="177" fill="rgb(0, 0, 0)" stroke="rgb(66, 66, 66)" stroke-width="1px" opacity="0.25"></line><line x1="39.776785714285715" y1="0" x2="39.776785714285715" y2="177" fill="rgb(0, 0, 0)" stroke="rgb(66, 66, 66)" stroke-width="1px" opacity="0.25"></line><line x1="59.66517857142857" y1="0" x2="59.66517857142857" y2="177" fill="rgb(0, 0, 0)" stroke="rgb(66, 66, 66)" stroke-width="1px" opacity="0.25"></line><line x1="79.55357142857143" y1="0" x2="79.55357142857143" y2="177" fill="rgb(0, 0, 0)" stroke="rgb(66, 66, 66)" stroke-width="1px" opacity="0.25"></line><line x1="99.44196428571429" y1="0" x2="99.44196428571429" y2="177" fill="rgb(0, 0, 0)" stroke="rgb(66, 66, 66)" stroke-width="1px" opacity="0.25"></line><line x1="119.33035714285714" y1="0" x2="119.33035714285714" y2="177" fill="rgb(0, 0, 0)" stroke="rgb(66, 66, 66)" stroke-width="1px" opacity="0.25"></line><line x1="139.21875" y1="0" x2="139.21875" y2="177" fill="rgb(0, 0, 0)" stroke="rgb(66, 66, 66)" stroke-width="1px" opacity="0.25"></line><line x1="159.10714285714286" y1="0" x2="159.10714285714286" y2="177" fill="rgb(0, 0, 0)" stroke="rgb(66, 66, 66)" stroke-width="1px" opacity="0.25"></line><line x1="178.99553571428572" y1="0" x2="178.99553571428572" y2="177" fill="rgb(0, 0, 0)" stroke="rgb(66, 66, 66)" stroke-width="1px" opacity="0.25"></line><line x1="198.88392857142858" y1="0" x2="198.88392857142858" y2="177" fill="rgb(0, 0, 0)" stroke="rgb(66, 66, 66)" stroke-width="1px" opacity="0.25"></line><line x1="218.77232142857142" y1="0" x2="218.77232142857142" y2="177" fill="rgb(0, 0, 0)" stroke="rgb(66, 66, 66)" stroke-width="1px" opacity="0.25"></line><line x1="238.66071428571428" y1="0" x2="238.66071428571428" y2="177" fill="rgb(0, 0, 0)" stroke="rgb(66, 66, 66)" stroke-width="1px" opacity="0.25"></line><line x1="258.54910714285717" y1="0" x2="258.54910714285717" y2="177" fill="rgb(0, 0, 0)" stroke="rgb(66, 66, 66)" stroke-width="1px" opacity="0.25"></line><line x1="278.4375" y1="0" x2="278.4375" y2="177" fill="rgb(0, 0, 0)" stroke="rgb(66, 66, 66)" stroke-width="1px" opacity="0.25"></line></g><g><line x1="0" y1="170.78805254267854" x2="278.4375" y2="170.78805254267854" fill="rgb(0, 0, 0)" stroke="rgb(66, 66, 66)" stroke-width="1px" opacity="0.25"></line><line x1="0" y1="164.27022410953614" x2="278.4375" y2="164.27022410953614" fill="rgb(0, 0, 0)" stroke="rgb(66, 66, 66)" stroke-width="1px" opacity="0.25"></line><line x1="0" y1="158.62422430894804" x2="278.4375" y2="158.62422430894804" fill="rgb(0, 0, 0)" stroke="rgb(66, 66, 66)" stroke-width="1px" opacity="0.25"></line><line x1="0" y1="153.64409954009662" x2="278.4375" y2="153.64409954009662" fill="rgb(0, 0, 0)" stroke="rgb(66, 66, 66)" stroke-width="1px" opacity="0.25"></line><line x1="0" y1="149.18922613016633" x2="278.4375" y2="149.18922613016633" fill="rgb(0, 0, 0)" stroke="rgb(66, 66, 66)" stroke-width="1px" opacity="0.25"></line><line x1="0" y1="119.88144489385382" x2="278.4375" y2="119.88144489385382" fill="rgb(0, 0, 0)" stroke="rgb(66, 66, 66)" stroke-width="1px" opacity="0.25"></line><line x1="0" y1="102.73749189127192" x2="278.4375" y2="102.73749189127192" fill="rgb(0, 0, 0)" stroke="rgb(66, 66, 66)" stroke-width="1px" opacity="0.25"></line><line x1="0" y1="90.57366365754133" x2="278.4375" y2="90.57366365754133" fill="rgb(0, 0, 0)" stroke="rgb(66, 66, 66)" stroke-width="1px" opacity="0.25"></line><line x1="0" y1="81.1386654787597" x2="278.4375" y2="81.1386654787597" fill="rgb(0, 0, 0)" stroke="rgb(66, 66, 66)" stroke-width="1px" opacity="0.25"></line><line x1="0" y1="73.42971065495942" x2="278.4375" y2="73.42971065495942" fill="rgb(0, 0, 0)" stroke="rgb(66, 66, 66)" stroke-width="1px" opacity="0.25"></line><line x1="0" y1="66.91188222181695" x2="278.4375" y2="66.91188222181695" fill="rgb(0, 0, 0)" stroke="rgb(66, 66, 66)" stroke-width="1px" opacity="0.25"></line><line x1="0" y1="61.265882421228824" x2="278.4375" y2="61.265882421228824" fill="rgb(0, 0, 0)" stroke="rgb(66, 66, 66)" stroke-width="1px" opacity="0.25"></line><line x1="0" y1="56.28575765237751" x2="278.4375" y2="56.28575765237751" fill="rgb(0, 0, 0)" stroke="rgb(66, 66, 66)" stroke-width="1px" opacity="0.25"></line><line x1="0" y1="51.830884242447205" x2="278.4375" y2="51.830884242447205" fill="rgb(0, 0, 0)" stroke="rgb(66, 66, 66)" stroke-width="1px" opacity="0.25"></line><line x1="0" y1="22.523103006134694" x2="278.4375" y2="22.523103006134694" fill="rgb(0, 0, 0)" stroke="rgb(66, 66, 66)" stroke-width="1px" opacity="0.25"></line><line x1="0" y1="5.379150003552721" x2="278.4375" y2="5.379150003552721" fill="rgb(0, 0, 0)" stroke="rgb(66, 66, 66)" stroke-width="1px" opacity="0.25"></line></g></g></g><g><g><line x1="19.888392857142858" y1="0" x2="19.888392857142858" y2="177" fill="rgb(0, 0, 0)" stroke="rgb(153, 153, 153)" stroke-width="1.5px"></line></g></g><g><g><g><g><g><path stroke="rgb(255, 112, 67)" stroke-width="2px" d="M20.8828125,23.244130356937834L21.877232142857142,23.352485766725856L22.871651785714285,23.474440868995863L23.866071428571427,23.608540384560737L24.860491071428573,23.753041379686575L25.854910714285715,23.90613883235097L26.849330357142858,24.066132184948174L27.84375,24.23153691624877L28.838169642857146,24.40113097579518L29.832589285714285,24.573953196721508L30.827008928571427,24.749280939473152L31.82142857142857,24.926583492890494L32.815848214285715,25.10548284127869L33.810267857142854,25.285714285714295L34.8046875,25.467100897665365L35.79910714285714,25.649522825501638L36.793526785714285,25.83290188633513L37.78794642857142,26.017186803407068L38.78236607142857,26.202349647032882L39.776785714285715,26.38837286549038L40.77120535714286,26.575247631985963L41.765625,26.762969180904445L42.760044642857146,26.951540608264875L43.754464285714285,27.140964871509027L44.74888392857143,27.3312466809563L45.74330357142857,27.52239017567443L46.73772321428571,27.71440441627847L47.732142857142854,27.907296317524576L48.7265625,28.101073282228587L49.720982142857146,28.29574129751298L50.715401785714285,28.491310829660645L51.70982142857143,28.687789821345586L52.70424107142857,28.885186498873882L53.698660714285715,29.08350751293901L54.693080357142854,29.28276399540859L55.6875,29.4829644582269L56.681919642857146,29.684117673829515L57.67633928571429,29.886230793574192L58.67075892857143,30.089315528818464L59.66517857142857,30.293380919803262L60.659598214285715,30.498436274272358L61.654017857142854,30.704489251447132L62.6484375,30.91155216512811L63.64285714285714,31.119634613024207L64.63727678571429,31.32874647301705L65.63169642857143,31.53889594954516L66.62611607142857,31.750096002485286L67.62053571428571,31.962356830713073L68.61495535714286,32.17568892787491L69.609375,32.39010108940284L70.60379464285714,32.60560697213328L71.59821428571428,32.82221742612027L72.59263392857143,33.03994361227274L73.58705357142857,33.25879496835412L74.58147321428571,33.478785904754446L75.57589285714285,33.69992797830523L76.5703125,33.92223206724763L77.56473214285714,34.1457117349709L78.55915178571429,34.37037821615036L79.55357142857143,34.5962454726157L80.54799107142858,34.82332512347691L81.54241071428572,35.05163155344509L82.53683035714286,35.281176787630976L83.53125,35.51197565459469L84.52566964285714,35.74404060531052L85.52008928571429,35.977386932562716L86.51450892857143,36.212027533110806L87.50892857142857,36.447978184837936L88.50334821428571,36.68525225095783L89.49776785714286,36.92386601627223L90.4921875,37.16383333216521L91.48660714285714,37.40517101333772L92.48102678571428,37.64789342227089L93.47544642857142,37.89201792784093L94.46986607142857,38.13755942788124L95.46428571428571,38.38453587112601L96.45870535714286,38.63296271645155L97.453125,38.882858519647L98.44754464285715,39.13423932786486L99.44196428571429,39.38712433277128L100.43638392857143,39.6415301986855L101.43080357142857,39.89747678371797L102.42522321428572,40.154981400024404L103.41964285714286,40.41406460460113L104.4140625,40.674744390022845L105.40848214285714,40.93704204662733L106.40290178571428,41.20097747833207L107.39732142857143,41.466569878879525L108.39174107142857,41.73384177736865L109.38616071428571,42.00281306573206L110.38058035714285,42.27350705831225L111.375,42.54594443215925L112.36941964285714,42.82014935767794L113.36383928571429,43.09614335712617L114.35825892857143,43.373951512795706L115.35267857142858,43.653596244379855L116.34709821428572,43.93510359843637L117.34151785714286,44.218496943526944L118.3359375,44.503803343780184L119.33035714285714,44.791047170011424L120.32477678571429,45.08025655992489L121.31919642857143,45.371456943115575L122.31361607142857,45.66467759041418L123.30803571428571,45.95994505050168L124.30245535714286,46.25728979095839L125.296875,46.55673954409987L126.29129464285714,46.858326042384405L127.28571428571428,47.16207827097145L128.28013392857142,47.46802930025434L129.27455357142858,47.77620944253616L130.26897321428572,48.08665318457856L131.26339285714286,48.39939224568142L132.2578125,48.71446261327114L133.25223214285714,49.03189749955777L134.24665178571428,49.35173448333001L135.24107142857142,49.674008362242276L136.23549107142856,49.99875840413633L137.22991071428572,50.32602109188765L138.22433035714286,50.655837487735226L139.21875,50.9882458674832L140.21316964285714,51.323289201497L141.20758928571428,51.66100767491712L142.20200892857142,52.00144628916476L143.19642857142856,52.34464726467869L144.19084821428572,52.69065776697507L145.18526785714286,53.039522188263334L146.1796875,53.39129000231934L147.17410714285714,53.746007921173735L148.16852678571428,54.10372788328959L149.16294642857142,54.46449908134543L150.15736607142856,54.828376088457084L151.1517857142857,55.19541075289715L152.14620535714283,55.56566046737101L153.140625,55.93917992632316L154.13504464285714,56.3160295435691L155.12946428571428,56.696267067639035L156.12388392857142,57.07995615338272L157.11830357142858,57.46715783059008L158.11272321428572,57.857939235530125L159.10714285714286,58.25236492786574L160.1015625,58.65050578846069L161.09598214285717,59.05243017937427L162.0904017857143,59.458213014678336L163.08482142857144,59.86792675807236L164.07924107142858,60.28165067389868L165.07366071428572,60.69946165666394L166.06808035714286,61.12144366992949L167.0625,61.547678401758816L168.05691964285714,61.97825489969801L169.05133928571428,62.41326004589184L170.04575892857144,62.85278839696335L171.04017857142858,63.296933480946606L172.03459821428572,63.745793419740004L173.02901785714286,64.19946945360665L174.0234375,64.65806609272052L175.01785714285714,65.12169127044808L176.01227678571428,65.59045650113843L177.00669642857142,66.06447704434096L178.00111607142856,66.543872076864L178.99553571428572,67.0287648738109L179.98995535714286,67.5192829995762L180.984375,68.01555850972382L181.97879464285714,68.51772816465511L182.97321428571428,69.02593365599714L183.96763392857142,69.54032184668961L184.96205357142856,70.06104502581188L185.9564732142857,70.5882611792708L186.95089285714283,71.12213427756294L187.9453125,71.66283458192639L188.93973214285714,72.2105389703179L189.93415178571428,72.76543128477645L190.92857142857142,73.32770270188325L191.92299107142858,73.89755212818622L192.91741071428572,74.47518662263552L193.91183035714286,75.06082184827598L194.90625,75.65468255566253L195.90066964285717,76.25700310070972L196.8950892857143,76.86802799996191L197.88950892857144,77.48801252657658L198.88392857142858,78.11722335065633L199.87834821428572,78.75593922794982L200.87276785714286,79.40445174137244L201.8671875,80.06306610028582L202.86160714285714,80.73210200301743L203.85602678571428,81.41189456872482L204.85044642857144,82.1027953454012L205.84486607142858,82.80517340161401L206.83928571428572,83.51941651046332L207.83370535714286,84.24593243527006L208.828125,84.98515032766502L209.82254464285714,85.73752225008295L210.81696428571428,86.50352483618411L211.81138392857142,87.28366110447766L212.80580357142856,88.07846244242573L213.80022321428572,88.88849078063008L214.79464285714286,89.71434097937963L215.7890625,90.55664345294745L216.78348214285714,91.41606804136862L217.77790178571428,92.29332389985666L218.77232142857142,93.18916682945255L219.76674107142856,94.10440165289617L220.7611607142857,95.0398865797561L221.75558035714283,95.9965380547945L222.75,96.97533616107536L223.74441964285714,97.97733065940032L224.73883928571428,99.00364775842034L225.73325892857142,100.05549772552865L226.72767857142858,101.13418346789524L227.72209821428572,102.24111023646164L228.71651785714286,103.37779663432401L229.7109375,104.54588714593825L230.70535714285717,105.74716644657883L231.6997767857143,106.98357580457558L232.69419642857144,108.25723195476144L233.68861607142858,109.57044890386113L234.68303571428572,110.92576323198129L235.67745535714286,112.32596358520229L236.671875,113.77412522100047L237.66629464285714,115.27365068228899L238.66071428571428,116.828317952945L239.65513392857144,118.44233780945402L240.64955357142858,120.12042352686547L241.64397321428572,121.86787060928076L242.63839285714286,123.69066130432078L243.6328125,125.59558672065113L244.62723214285714,127.5903996001322L245.62165178571428,129.68400493495582L246.61607142857142,131.88670027745457L247.61049107142856,134.21048215282042L248.60491071428572,136.66944167492505L249.59933035714286,139.28028246732322L250.59375,142.06300927168525L251.58816964285714,145.04185954034241L252.58258928571428,148.24658970699232L253.57700892857142,151.71428571428564L254.57142857142856,155.4919923590703L255.5658482142857,159.64063016783132L256.56026785714283,164.24105320999976L257.5546875,169.4038223556054L258.54910714285717,175.28581675991416L259.5435267857143,182.12036724324534" style="fill: none;" fill="none"></path></g></g></g></g><g opacity="0.2"><g><g><g><path stroke="rgb(255, 112, 67)" stroke-width="2px" d="M20.8828125,23.244130356937834L21.877232142857142,23.41763254970553L22.871651785714285,23.591849631836684L23.866071428571427,23.766787518899392L24.860491071428573,23.942448223369215L25.854910714285715,24.118845746525558L26.849330357142858,24.29598226850786L27.84375,24.47386400729012L28.838169642857146,24.65249725965559L29.832589285714285,24.83188434116989L30.827008928571427,25.012039815662426L31.82142857142857,25.192966180312098L32.815848214285715,25.374670060800298L33.810267857142854,25.55715403696724L34.8046875,25.740433152871397L35.79910714285714,25.924510182216952L36.793526785714285,26.109392102893946L37.78794642857142,26.295081780358643L38.78236607142857,26.481594768148984L39.776785714285715,26.66893413891872L40.77120535714286,26.85710724817901L41.765625,27.046117270368732L42.760044642857146,27.235980300233617L43.754464285714285,27.426699733943696L44.74888392857143,27.61828333237832L45.74330357142857,27.81073460457852L46.73772321428571,28.004070220970448L47.732142857142854,28.19829392819448L48.7265625,28.393413922840683L49.720982142857146,28.589434076685823L50.715401785714285,28.786371673352313L51.70982142857143,28.98423083956981L52.70424107142857,29.183020240874427L53.698660714285715,29.382744142720618L54.693080357142854,29.583420482826423L55.6875,29.785053800608882L56.681919642857146,29.987653267016846L57.67633928571429,30.19122357526808L58.67075892857143,30.395783361843524L59.66517857142857,30.60133761478594L60.659598214285715,30.8078960505375L61.654017857142854,31.015463827692418L62.6484375,31.22406033036823L63.64285714285714,31.43369103492157L64.63727678571429,31.644366247421765L65.63169642857143,31.856091633417982L66.62611607142857,32.06888737824405L67.62053571428571,32.2827594904784L68.61495535714286,32.49771891450705L69.609375,32.71377186888037L70.60379464285714,32.93093939900469L71.59821428571428,33.1492280943489L72.59263392857143,33.368649591436046L73.58705357142857,33.58921071290966L74.58147321428571,33.810933429036766L75.57589285714285,34.03382496422617L76.5703125,34.257895168940145L77.56473214285714,34.48316169152751L78.55915178571429,34.70963223104031L79.55357142857143,34.937324898898694L80.54799107142858,35.16624775701135L81.54241071428572,35.39641939894572L82.53683035714286,35.62784826666167L83.53125,35.860553455978504L84.52566964285714,36.094543807086204L85.52008928571429,36.329838939257606L86.51450892857143,36.56644811014235L87.50892857142857,36.804391484840394L88.50334821428571,37.043678758814195L89.49776785714286,37.28433066661405L90.4921875,37.52635736307155L91.48660714285714,37.76978017714715L92.48102678571428,38.014609745884805L93.47544642857142,38.26086801904394L94.46986607142857,38.50856614010442L95.46428571428571,38.75772670754279L96.45870535714286,39.00836139697787L97.453125,39.26049348516027L98.44754464285715,39.51413520713886L99.44196428571429,39.76931054925108L100.43638392857143,40.02603233497338L101.43080357142857,40.284325293427756L102.42522321428572,40.54420286734886L103.41964285714286,40.80569056386507L104.4140625,41.06880247777339L105.40848214285714,41.33356493160532L106.40290178571428,41.59999572621669L107.39732142857143,41.86811298207733L108.39174107142857,42.13794432011242L109.38616071428571,42.40950562315199L110.38058035714285,42.682825431651835L111.375,42.957920413177355L112.36941964285714,43.23482007412483L113.36383928571429,43.51354191056821L114.35825892857143,43.794116444298844L115.35267857142858,44.07656204667266L116.34709821428572,44.36091030762027L117.34151785714286,44.64718052380063L118.3359375,44.93540540958638L119.33035714285714,45.22560524047972L120.32477678571429,45.5178139154511L121.31919642857143,45.81205274620467L122.31361607142857,46.10835688064031L123.30803571428571,46.40674872816906L124.30245535714286,46.70726475448463L125.296875,47.0099285327177L126.29129464285714,47.31477792014429L127.28571428571428,47.62183772453476L128.28013392857142,47.93114727389136L129.27455357142858,48.24273268689183L130.26897321428572,48.55663484724195L131.26339285714286,48.872881266629356L132.2578125,49.19151447580103L133.25223214285714,49.51256346793135L134.24665178571428,49.83607251909137L135.24107142857142,50.16207219939191L136.23549107142856,50.49060863610336L137.22991071428572,50.82171407936128L138.22433035714286,51.15543662182348L139.21875,51.49181030511578L140.21316964285714,51.83088531058517L141.20758928571428,52.172697592016796L142.20200892857142,52.51729955275457L143.19642857142856,52.86472918953478L144.19084821428572,53.21504127200978L145.18526785714286,53.56827598181175L146.1796875,53.92449061133112L147.17410714285714,54.28372768134715L148.16852678571428,54.64604717678551L149.16294642857142,55.01149412542499L150.15736607142856,55.380131389293574L151.1517857142857,55.75200668607969L152.14620535714283,56.12718595582918L153.140625,56.50571980574767L154.13504464285714,56.88767747294097L155.12946428571428,57.273112672290644L156.12388392857142,57.6620981771404L157.11830357142858,58.0546910488538L158.11272321428572,58.450967858599824L159.10714285714286,58.850989276055024L160.1015625,59.25483595679162L161.09598214285717,59.6625724663572L162.0904017857143,60.07428385923003L163.08482142857144,60.490038913193246L164.07924107142858,60.90992742740371L165.07366071428572,61.334022740567974L166.06808035714286,61.76241977738778L167.0625,62.19519682253089L168.05691964285714,62.63245434658472L169.05133928571428,63.074276006189905L170.04575892857144,63.52076828266938L171.04017857142858,63.972023239264914L172.03459821428572,64.42814619623468L173.02901785714286,64.88924332900416L174.0234375,65.35542432500489L175.01785714285714,65.82680254029374L176.01227678571428,66.30349516500097L177.00669642857142,66.78562339821188L178.00111607142856,67.27331263293419L178.99553571428572,67.7666926518583L179.98995535714286,68.26589783467352L180.984375,68.77106737777018L181.97879464285714,69.28234552722623L182.97321428571428,69.7998818260524L183.96763392857142,70.32383137675828L184.96205357142856,70.85435512039129L185.9564732142857,71.39162013330521L186.95089285714283,71.93579994302738L187.9453125,72.48707486471844L188.93973214285714,73.04563235985762L189.93415178571428,73.61166741893788L190.92857142857142,74.18538297012702L191.92299107142858,74.76699031603674L192.91741071428572,75.35670960095324L193.91183035714286,75.95477031111402L194.90625,76.56141181087565L195.90066964285717,77.17688391790863L196.8950892857143,77.80144752087725L197.88950892857144,78.43537524342801L198.88392857142858,79.0789521587146L199.87834821428572,79.73247655914848L200.87276785714286,80.39626078657592L201.8671875,81.0706321286657L202.86160714285714,81.75593378794713L203.85602678571428,82.45252593067953L204.85044642857144,83.16078682357961L205.84486607142858,83.88111406738662L206.83928571428572,84.61392593733812L207.83370535714286,85.3596628418709L208.828125,86.1187889122848L209.82254464285714,86.89179373773715L210.81696428571428,87.6791942618092L211.81138392857142,88.48153685904332L212.80580357142856,89.2993996123419L213.80022321428572,90.13339481500275L214.79464285714286,90.98417172451805L215.7890625,91.8524195991598L216.78348214285714,92.73887358268061L217.77790178571428,93.64430835431206L218.77232142857142,94.56955726610337L219.76674107142856,95.51550696525203L220.7611607142857,96.48310497745996L221.75558035714283,97.47336541108346L222.75,98.4873753454203L223.74441964285714,99.52630200402248L224.73883928571428,100.59140083171782L225.73325892857142,101.68402461550323L226.72767857142858,102.80563381550488L227.72209821428572,103.95780830391607L228.71651785714286,105.14226074864827L229.7109375,106.36085192621022L230.70535714285717,107.6156083074613L231.6997767857143,108.90874233348845L232.69419642857144,110.24267589104957L233.68861607142858,111.62006761325937L234.68303571428572,113.04384477876042L235.67745535714286,114.51724077135368L236.671875,116.04383930534912L237.66629464285714,117.62762693814805L238.66071428571428,119.27305580635587L239.65513392857144,120.9851190710021L240.64955357142858,122.76944486571274L241.64397321428572,124.63239763826347L242.63839285714286,126.58123049327978L243.6328125,128.62424564992403L244.62723214285714,130.77101063712584L245.62165178571428,133.03262924094167L246.61607142857142,135.4220890985806L247.61049107142856,137.95471352617506L248.60491071428572,140.64875749495553L249.59933035714286,143.52620672560866L250.59375,146.61386908797064L251.58816964285714,149.94489681413037L252.58258928571428,153.5609638845076L253.57700892857142,157.51545023867774L254.57142857142856,161.87830546905062L255.5658482142857,166.74368841318136L256.56026785714283,172.24261907067498L257.5546875,178.56514768581798" style="fill: none;" fill="none"></path></g></g></g></g></g></g><g transform="translate(51, 177)" clip-path="url(#clip_1)"><clipPath id="clip_1"><rect width="278" height="23"></rect></clipPath><g><g><line x1="0" y1="0" x2="0" y2="5" style="visibility: inherit;" fill="rgb(0, 0, 0)" stroke="rgb(204, 204, 204)" stroke-width="1px"></line><line x1="19.888392857142858" y1="0" x2="19.888392857142858" y2="5" style="visibility: inherit;" fill="rgb(0, 0, 0)" stroke="rgb(204, 204, 204)" stroke-width="1px"></line><line x1="39.776785714285715" y1="0" x2="39.776785714285715" y2="5" style="visibility: inherit;" fill="rgb(0, 0, 0)" stroke="rgb(204, 204, 204)" stroke-width="1px"></line><line x1="59.66517857142857" y1="0" x2="59.66517857142857" y2="5" style="visibility: inherit;" fill="rgb(0, 0, 0)" stroke="rgb(204, 204, 204)" stroke-width="1px"></line><line x1="79.55357142857143" y1="0" x2="79.55357142857143" y2="5" style="visibility: inherit;" fill="rgb(0, 0, 0)" stroke="rgb(204, 204, 204)" stroke-width="1px"></line><line x1="99.44196428571429" y1="0" x2="99.44196428571429" y2="5" style="visibility: inherit;" fill="rgb(0, 0, 0)" stroke="rgb(204, 204, 204)" stroke-width="1px"></line><line x1="119.33035714285714" y1="0" x2="119.33035714285714" y2="5" style="visibility: inherit;" fill="rgb(0, 0, 0)" stroke="rgb(204, 204, 204)" stroke-width="1px"></line><line x1="139.21875" y1="0" x2="139.21875" y2="5" style="visibility: inherit;" fill="rgb(0, 0, 0)" stroke="rgb(204, 204, 204)" stroke-width="1px"></line><line x1="159.10714285714286" y1="0" x2="159.10714285714286" y2="5" style="visibility: inherit;" fill="rgb(0, 0, 0)" stroke="rgb(204, 204, 204)" stroke-width="1px"></line><line x1="178.99553571428572" y1="0" x2="178.99553571428572" y2="5" style="visibility: inherit;" fill="rgb(0, 0, 0)" stroke="rgb(204, 204, 204)" stroke-width="1px"></line><line x1="198.88392857142858" y1="0" x2="198.88392857142858" y2="5" style="visibility: inherit;" fill="rgb(0, 0, 0)" stroke="rgb(204, 204, 204)" stroke-width="1px"></line><line x1="218.77232142857142" y1="0" x2="218.77232142857142" y2="5" style="visibility: inherit;" fill="rgb(0, 0, 0)" stroke="rgb(204, 204, 204)" stroke-width="1px"></line><line x1="238.66071428571428" y1="0" x2="238.66071428571428" y2="5" style="visibility: inherit;" fill="rgb(0, 0, 0)" stroke="rgb(204, 204, 204)" stroke-width="1px"></line><line x1="258.54910714285717" y1="0" x2="258.54910714285717" y2="5" style="visibility: inherit;" fill="rgb(0, 0, 0)" stroke="rgb(204, 204, 204)" stroke-width="1px"></line><line x1="278.4375" y1="0" x2="278.4375" y2="5" style="visibility: inherit;" fill="rgb(0, 0, 0)" stroke="rgb(204, 204, 204)" stroke-width="1px"></line></g><g transform="translate(0, 8)"><text x="0" y="0" dx="0em" dy="0.95em" style="text-anchor: middle; visibility: hidden; font-family: Roboto, sans-serif; font-size: 12px; font-weight: 200;" fill="rgb(33, 33, 33)" stroke="none" stroke-width="1px">-200</text><text x="19.888392857142858" y="0" dx="0em" dy="0.95em" style="text-anchor: middle; visibility: inherit; font-family: Roboto, sans-serif; font-size: 12px; font-weight: 200;" fill="rgb(33, 33, 33)" stroke="none" stroke-width="1px">0</text><text x="39.776785714285715" y="0" dx="0em" dy="0.95em" style="text-anchor: middle; visibility: hidden; font-family: Roboto, sans-serif; font-size: 12px; font-weight: 200;" fill="rgb(33, 33, 33)" stroke="none" stroke-width="1px">200</text><text x="59.66517857142857" y="0" dx="0em" dy="0.95em" style="text-anchor: middle; visibility: inherit; font-family: Roboto, sans-serif; font-size: 12px; font-weight: 200;" fill="rgb(33, 33, 33)" stroke="none" stroke-width="1px">400</text><text x="79.55357142857143" y="0" dx="0em" dy="0.95em" style="text-anchor: middle; visibility: hidden; font-family: Roboto, sans-serif; font-size: 12px; font-weight: 200;" fill="rgb(33, 33, 33)" stroke="none" stroke-width="1px">600</text><text x="99.44196428571429" y="0" dx="0em" dy="0.95em" style="text-anchor: middle; visibility: inherit; font-family: Roboto, sans-serif; font-size: 12px; font-weight: 200;" fill="rgb(33, 33, 33)" stroke="none" stroke-width="1px">800</text><text x="119.33035714285714" y="0" dx="0em" dy="0.95em" style="text-anchor: middle; visibility: hidden; font-family: Roboto, sans-serif; font-size: 12px; font-weight: 200;" fill="rgb(33, 33, 33)" stroke="none" stroke-width="1px">1k</text><text x="139.21875" y="0" dx="0em" dy="0.95em" style="text-anchor: middle; visibility: inherit; font-family: Roboto, sans-serif; font-size: 12px; font-weight: 200;" fill="rgb(33, 33, 33)" stroke="none" stroke-width="1px">1.2k</text><text x="159.10714285714286" y="0" dx="0em" dy="0.95em" style="text-anchor: middle; visibility: hidden; font-family: Roboto, sans-serif; font-size: 12px; font-weight: 200;" fill="rgb(33, 33, 33)" stroke="none" stroke-width="1px">1.4k</text><text x="178.99553571428572" y="0" dx="0em" dy="0.95em" style="text-anchor: middle; visibility: inherit; font-family: Roboto, sans-serif; font-size: 12px; font-weight: 200;" fill="rgb(33, 33, 33)" stroke="none" stroke-width="1px">1.6k</text><text x="198.88392857142858" y="0" dx="0em" dy="0.95em" style="text-anchor: middle; visibility: hidden; font-family: Roboto, sans-serif; font-size: 12px; font-weight: 200;" fill="rgb(33, 33, 33)" stroke="none" stroke-width="1px">1.8k</text><text x="218.77232142857142" y="0" dx="0em" dy="0.95em" style="text-anchor: middle; visibility: inherit; font-family: Roboto, sans-serif; font-size: 12px; font-weight: 200;" fill="rgb(33, 33, 33)" stroke="none" stroke-width="1px">2k</text><text x="238.66071428571428" y="0" dx="0em" dy="0.95em" style="text-anchor: middle; visibility: hidden; font-family: Roboto, sans-serif; font-size: 12px; font-weight: 200;" fill="rgb(33, 33, 33)" stroke="none" stroke-width="1px">2.2k</text><text x="258.54910714285717" y="0" dx="0em" dy="0.95em" style="text-anchor: middle; visibility: inherit; font-family: Roboto, sans-serif; font-size: 12px; font-weight: 200;" fill="rgb(33, 33, 33)" stroke="none" stroke-width="1px">2.4k</text><text x="278.4375" y="0" dx="0em" dy="0.95em" style="text-anchor: middle; visibility: hidden; font-family: Roboto, sans-serif; font-size: 12px; font-weight: 200;" fill="rgb(33, 33, 33)" stroke="none" stroke-width="1px">2.6k</text></g><line x1="0" y1="0" x2="278.4375" y2="0" fill="rgb(0, 0, 0)" stroke="rgb(204, 204, 204)" stroke-width="1px"></line></g></g></g></g></svg>